<svg width="41" height="46" viewBox="0 0 41 46" fill="none" xmlns="http://www.w3.org/2000/svg">
<path d="M25.3564 0.691406H15.5126C11.598 0.695801 7.84479 2.25307 5.07664 5.02098C2.30873 7.7892 0.75149 11.5425 0.74707 15.457V39.3633C0.748954 41.041 1.41629 42.6495 2.60252 43.836C3.78908 45.0222 5.39743 45.6895 7.07521 45.6914H33.794C35.4718 45.6895 37.0802 45.0222 38.2667 43.836C39.4529 42.6494 40.1202 41.041 40.1221 39.3633V15.457C40.1177 11.5424 38.5605 7.78912 35.7926 5.02098C33.0243 2.25307 29.2711 0.695826 25.3566 0.691406L25.3564 0.691406ZM15.5126 2.09766H25.3564C28.8984 2.10174 32.2938 3.5105 34.7984 6.01508C37.303 8.51965 38.7117 11.9151 38.7158 15.4571V23.3026C36.7 24.9945 34.4653 26.4073 32.0725 27.5031C31.9011 25.5635 31.43 23.6623 30.6757 21.8674C32.1692 20.6018 32.4404 19.4404 32.3751 18.6625C32.247 17.5968 31.5708 16.6758 30.5924 16.2339C30.1285 16.0019 30.3934 14.2538 30.9305 12.9047H30.9308C31.0319 12.6504 30.9766 12.3607 30.7889 12.1617C30.6012 11.9627 30.3149 11.8908 30.0553 11.9771C29.8642 12.0411 25.3563 13.5818 25.3563 16.8632C25.4172 18.6261 26.0512 20.3211 27.1627 21.6909C26.3309 23.2026 25.715 26.0842 25.4702 29.656C24.9382 29.7618 24.4008 29.8525 23.8581 29.9282C23.6133 25.9696 22.9271 22.8658 21.9716 21.3991L23.925 14.2362L23.9246 14.2359C23.9827 14.0247 23.9385 13.7984 23.8057 13.6241C23.6726 13.4496 23.466 13.3473 23.2469 13.3473H17.6219C17.4028 13.3473 17.1963 13.4493 17.0632 13.6235C16.9301 13.7977 16.8858 14.0241 16.9433 14.2353L18.8967 21.3975C17.9396 22.8706 17.2375 26.0959 17.0061 30.0849C16.4904 30.0381 15.9596 29.975 15.4134 29.8956C15.1548 25.7857 14.4291 22.6183 13.4221 21.2331V21.2334C13.4353 19.7732 14.0841 18.3914 15.1991 17.4484C15.4225 17.2996 15.5418 17.0363 15.5064 16.7701C15.4706 16.5039 15.2866 16.281 15.0317 16.196C13.6255 15.727 12.8618 13.3728 12.686 12.5052V12.5055C12.6201 12.1768 12.3317 11.9405 11.9967 11.9405C11.6615 11.9405 11.373 12.1768 11.3074 12.5055C11.1316 13.3731 10.368 15.7273 8.96171 16.1963V16.196C8.70682 16.281 8.52257 16.5039 8.4871 16.7701C8.45163 17.0363 8.57091 17.2996 8.7944 17.4484C8.81135 17.4597 10.3793 18.5377 10.571 21.2374C9.46297 22.7514 8.94877 26.0306 8.72939 28.0831H8.72971C6.38745 27.1487 4.17666 25.9135 2.15327 24.4086V15.456C2.15735 11.9141 3.56611 8.51864 6.07068 6.01406C8.57526 3.50949 11.9707 2.10074 15.5127 2.09665L15.5126 2.09766ZM29.9641 17.4925C30.4961 17.7248 30.8757 18.2091 30.9745 18.7814C31.0244 19.3762 30.6189 20.0618 29.8313 20.746L29.831 20.7457C29.5632 20.5166 29.2245 20.3872 28.872 20.3788C28.6001 20.3806 28.3346 20.4585 28.1048 20.6038C27.2824 19.5253 26.8135 18.2185 26.7626 16.8631C26.7626 15.5805 28.0141 14.5597 29.1413 13.9282C28.8431 15.2171 28.7439 16.882 29.964 17.4925L29.9641 17.4925ZM28.8658 21.785C28.8658 21.785 28.9876 21.8174 29.1891 22.1049C29.4101 22.4439 29.588 22.8086 29.7193 23.1913H28.0227C28.1589 22.7867 28.3504 22.4031 28.5914 22.051C28.6599 21.9414 28.754 21.8501 28.8658 21.7851L28.8658 21.785ZM27.6064 24.5975H30.1377C30.4051 25.7517 30.5994 26.922 30.7199 28.1006C29.4782 28.6016 28.2028 29.015 26.9033 29.338C27.0154 27.7422 27.2505 26.1573 27.6064 24.5975H27.6064ZM20.4345 21.785C20.5293 21.8296 20.6103 21.899 20.6693 21.9853C20.9336 22.3535 21.1392 22.7603 21.2783 23.1913H19.5845C19.7254 22.7606 19.9336 22.3548 20.201 21.9891C20.2619 21.9056 20.3397 21.8362 20.4295 21.785L20.4345 21.785ZM20.7861 20.4259C20.5604 20.3634 20.3218 20.3634 20.0965 20.4259L18.5424 14.7538H22.3267L20.7861 20.4259ZM19.1648 24.5975H21.7002C22.1129 26.4018 22.3659 28.239 22.4566 30.0875C21.5709 30.1698 20.6618 30.2225 19.7314 30.2225C19.2596 30.2225 18.828 30.2084 18.4096 30.188C18.4947 28.3059 18.7474 26.4347 19.1648 24.5975L19.1648 24.5975ZM11.997 17.5663C12.1835 17.5663 12.3624 17.4922 12.4942 17.3604C12.6261 17.2285 12.7001 17.0496 12.7001 16.8631V16.0392C12.9604 16.4074 13.2724 16.7363 13.6267 17.0151C12.8182 17.9791 12.2943 19.1493 12.1138 20.3942C12.0359 20.3876 11.9574 20.3876 11.8796 20.3942C11.6991 19.149 11.1752 17.9785 10.3663 17.0145C10.721 16.7357 11.0337 16.4074 11.2939 16.0392V16.8631C11.2939 17.0496 11.368 17.2285 11.4998 17.3604C11.6316 17.4922 11.8105 17.5663 11.997 17.5663H11.997ZM11.997 21.785C12.0745 21.8177 12.142 21.8704 12.1926 21.9376C12.4817 22.3143 12.703 22.7386 12.8464 23.1913H11.1482C11.291 22.7412 11.5108 22.3193 11.7974 21.9439C11.8507 21.8761 11.9191 21.8218 11.997 21.7851L11.997 21.785ZM10.7314 24.5975H13.2626C13.6434 26.2602 13.8857 27.9518 13.9874 29.6544C12.6653 29.397 11.363 29.0467 10.0901 28.6054C10.2087 27.2559 10.4231 25.9165 10.7314 24.5975ZM33.7939 44.2851H7.07513C5.77028 44.2835 4.51904 43.7646 3.59654 42.8418C2.67372 41.9193 2.15485 40.668 2.15324 39.3632V26.15C4.30376 27.6429 6.63726 28.8527 9.09659 29.7501C10.8898 30.4112 12.7425 30.899 14.6287 31.2069C15.6165 31.3767 16.6131 31.4919 17.6136 31.5522C18.2627 31.6027 18.958 31.6288 19.7314 31.6288C20.916 31.6307 22.0998 31.5635 23.2765 31.4276C24.2863 31.314 25.2896 31.1482 26.2824 30.9313C28.1566 30.5311 29.9885 29.9526 31.7526 29.2036C34.243 28.154 36.5844 26.7807 38.7157 25.1192V39.3634C38.7142 40.6682 38.1953 41.9195 37.2724 42.842C36.3499 43.7648 35.0987 44.2836 33.7938 44.2853L33.7939 44.2851Z" fill="#D3302F" stroke="#D3302F" stroke-width="0.5"/>
<path d="M16.9189 9.83201H18.3252C18.3252 10.5857 18.7273 11.2819 19.3799 11.6589C20.0325 12.0355 20.8367 12.0355 21.4892 11.6589C22.1418 11.2819 22.5439 10.5857 22.5439 9.83201H23.9502C24.7038 9.83201 25.4001 9.42991 25.777 8.77732C26.1537 8.12473 26.1537 7.32053 25.777 6.66794C25.4 6.01535 24.7039 5.61325 23.9502 5.61325H22.5439C22.5439 4.85959 22.1418 4.16337 21.4892 3.78641C20.8367 3.40974 20.0324 3.40974 19.3799 3.78641C18.7273 4.1634 18.3252 4.85958 18.3252 5.61325H16.9189C16.1653 5.61325 15.469 6.01535 15.0921 6.66794C14.7154 7.32053 14.7154 8.12474 15.0921 8.77732C15.4691 9.42991 16.1652 9.83201 16.9189 9.83201ZM16.9189 7.01951H19.0283C19.2148 7.01951 19.3937 6.94543 19.5255 6.81359C19.6573 6.68176 19.7314 6.50283 19.7314 6.31638V5.61325C19.7314 5.22497 20.0463 4.91013 20.4346 4.91013C20.8228 4.91013 21.1377 5.22497 21.1377 5.61325V6.31638C21.1377 6.50283 21.2118 6.68176 21.3436 6.81359C21.4754 6.94543 21.6544 7.01951 21.8408 7.01951H23.9502C24.3385 7.01951 24.6533 7.33435 24.6533 7.72263C24.6533 8.11092 24.3385 8.42576 23.9502 8.42576H21.8408C21.4525 8.42576 21.1377 8.7406 21.1377 9.12889V9.83201C21.1377 10.2203 20.8228 10.5351 20.4346 10.5351C20.0463 10.5351 19.7314 10.2203 19.7314 9.83201V9.12889C19.7314 8.94243 19.6573 8.76351 19.5255 8.63168C19.3937 8.49984 19.2148 8.42576 19.0283 8.42576H16.9189C16.5306 8.42576 16.2158 8.11092 16.2158 7.72263C16.2158 7.33435 16.5306 7.01951 16.9189 7.01951Z" fill="#D3302F" stroke="#D3302F" stroke-width="0.5"/>
<path d="M30.9815 33.0352H9.8877C9.49941 33.0352 9.18457 33.35 9.18457 33.7383V36.5508C9.18457 36.7372 9.25865 36.9162 9.39049 37.048C9.52232 37.1798 9.70124 37.2539 9.8877 37.2539H30.9815C31.1679 37.2539 31.3469 37.1798 31.4787 37.048C31.6105 36.9162 31.6846 36.7372 31.6846 36.5508V33.7383C31.6846 33.5518 31.6105 33.3729 31.4787 33.2411C31.3469 33.1092 31.1679 33.0352 30.9815 33.0352ZM30.2784 35.8477H10.5908V34.4414H30.2784V35.8477Z" fill="#D3302F" stroke="#D3302F" stroke-width="0.5"/>
<path d="M20.4345 38.6602C19.8752 38.6602 19.3384 38.8824 18.9429 39.2779C18.5475 39.6734 18.3252 40.2102 18.3252 40.7695C18.3252 41.3288 18.5474 41.8657 18.9429 42.2611C19.3385 42.6565 19.8752 42.8788 20.4345 42.8788C20.9938 42.8788 21.5307 42.6566 21.9261 42.2611C22.3216 41.8656 22.5439 41.3288 22.5439 40.7695C22.5439 40.2102 22.3216 39.6733 21.9261 39.2779C21.5306 38.8825 20.9938 38.6602 20.4345 38.6602ZM20.4345 41.4727C20.1501 41.4727 19.8937 41.3013 19.7851 41.0385C19.6762 40.7758 19.7361 40.4735 19.9373 40.2723C20.1385 40.0711 20.4408 40.0112 20.7035 40.1201C20.9663 40.2287 21.1377 40.4852 21.1377 40.7695C21.1377 40.956 21.0636 41.1349 20.9317 41.2667C20.7999 41.3986 20.621 41.4727 20.4345 41.4727Z" fill="#D3302F" stroke="#D3302F" stroke-width="0.5"/>
</svg>
