<svg width="40" height="40" viewBox="0 0 40 40" fill="none" xmlns="http://www.w3.org/2000/svg">
<path d="M39.3483 4.45556V9.83289H33.7445V39.6629H27.405C26.1974 38.078 24.8955 36.6441 23.4993 35.3611C22.1031 34.0403 20.5748 32.8705 18.9144 31.8517C17.2541 30.8328 15.4239 29.9649 13.4239 29.2479C11.4616 28.5309 9.29184 27.9649 6.91449 27.5498L5.21639 21.4932L8.32958 23.0781C11.9522 23.5309 14.9522 24.2668 17.3295 25.2856C19.7069 26.2668 21.688 27.3988 23.2729 28.6819C24.8955 29.9271 26.3106 31.1724 27.5182 32.4177C27.4804 31.5498 27.4427 30.6818 27.405 29.8139C27.405 28.946 27.405 28.0026 27.405 26.9837V0.719727H32.3861L33.6879 4.45556H39.3483ZM23.8955 13.3423C23.8955 15.4178 23.3672 17.2857 22.3106 18.9461C21.254 20.5687 19.7257 21.9083 17.7258 22.9649C15.7258 23.9838 13.2541 24.663 10.3107 25.0026L6.34846 24.1536L5.21639 21.4932C8.0843 21.0781 10.4428 20.531 12.2918 19.8517C14.1409 19.1725 15.4994 18.3423 16.3673 17.3612C17.2729 16.38 17.7258 15.2291 17.7258 13.9083C17.7258 12.7385 17.3861 11.7197 16.7069 10.8518C16.0654 9.98383 15.2352 9.15365 14.2163 8.3612L19.7635 4.28575C20.9333 5.45555 21.9144 6.81404 22.7069 8.3612C23.4993 9.90836 23.8955 11.5687 23.8955 13.3423ZM8.15977 15.6631C5.70695 15.6631 3.74469 15.0593 2.273 13.8517C0.839048 12.6065 0.12207 10.9272 0.12207 8.81403C0.12207 7.90837 0.235277 7.05932 0.461691 6.26687C0.688105 5.47442 0.971123 4.75744 1.31074 4.11594L7.0843 5.53102C6.89562 5.90838 6.72581 6.3046 6.57487 6.7197C6.46166 7.09705 6.40506 7.49328 6.40506 7.90837C6.40506 8.70082 6.63147 9.28572 7.0843 9.66308C7.57486 10.0404 8.17863 10.2291 8.89561 10.2291C9.65033 10.2291 10.3673 10.097 11.0465 9.83289C11.7258 9.56874 12.405 9.07818 13.0843 8.3612C13.8012 7.64422 14.556 6.62536 15.3484 5.30461L19.7635 4.28575L20.2729 6.7197C19.2918 8.56874 18.2352 10.1536 17.1031 11.4744C15.971 12.7951 14.6692 13.8329 13.1975 14.5876C11.7635 15.3046 10.0843 15.6631 8.15977 15.6631Z" fill="#D3302F"/>
</svg>
