<svg width="63" height="46" viewBox="0 0 63 46" fill="none" xmlns="http://www.w3.org/2000/svg">
<path d="M24.2443 2.90901C25.4403 3.85586 26.6529 5.29274 27.8822 7.21965L36.9519 21.3476V43.9223C37.9486 43.424 38.9037 41.1565 39.8174 37.12H40.7891L41.138 44.62C39.9087 45.3343 38.4303 45.6914 36.7027 45.6914C32.8988 45.6914 30.9968 43.9057 30.9968 40.3343V32.3858C28.8539 32.7678 27.1679 32.9339 25.9386 32.8841C25.3738 35.1432 24.2443 36.9954 22.5499 38.4406C20.8556 39.8692 18.937 40.5834 16.7941 40.5834C13.1895 40.5834 10.2825 38.7313 8.07318 35.027C7.25923 35.2429 6.46189 35.3509 5.68116 35.3509C4.20275 35.3509 2.99843 34.9522 2.0682 34.1549C1.15458 33.3575 0.689463 32.2861 0.672852 30.9406C0.689463 29.9273 1.01338 29.0801 1.64461 28.399C2.29245 27.718 3.05657 27.3775 3.93697 27.3775C4.83398 27.3775 5.70607 27.8343 6.55325 28.7479C10.9719 26.2894 13.1812 23.6897 13.1812 20.9489C13.1812 20.002 12.824 19.2213 12.1097 18.6067C11.3954 17.9921 10.5649 17.6848 9.61803 17.6848C7.70773 17.6848 5.71438 19.1632 3.63797 22.12L0.672852 15.3924C1.98514 14.8775 3.57152 14.62 5.43199 14.62C8.52169 14.62 10.9635 15.5668 12.7576 17.4605C14.5682 19.3542 15.4735 21.7628 15.4735 24.6864C15.4735 29.2047 13.4303 32.4854 9.34395 34.5286C10.6562 35.6416 11.9519 36.1981 13.231 36.1981C16.221 36.1981 18.6047 34.1964 20.3822 30.1931C19.2194 29.2296 18.638 28.0668 18.638 26.7047C18.6546 25.5419 19.0449 24.6449 19.8091 24.0137C20.5898 23.3658 21.4619 23.0419 22.4253 23.0419C23.6712 23.0253 24.6679 23.5153 25.4154 24.512C26.1795 25.5087 26.5616 26.7545 26.5616 28.2495C26.5616 29.2628 26.52 29.9605 26.437 30.3426C27.9486 29.9771 29.4685 29.0884 30.9968 27.6765V14.5701L28.4802 10.5336C26.736 7.70968 24.427 6.29772 21.5532 6.29772C20.9552 6.29772 20.3074 6.34755 19.6097 6.44722L17.6164 0.691406C19.2443 0.691406 20.4569 0.824297 21.2542 1.09008C22.0516 1.33925 23.0483 1.94556 24.2443 2.90901Z" fill="#D3302F"/>
<path d="M62.9403 28.0004L55.6147 31.8874C58.9204 34.3957 60.5732 37.0951 60.5732 39.9854C60.5732 41.7795 59.9253 43.1831 58.6297 44.1964C57.3506 45.1931 55.6562 45.6914 53.5466 45.6914C50.0915 45.6914 46.7858 44.4954 43.6297 42.1034V40.8326C45.2576 41.9622 46.9851 42.527 48.8124 42.527C50.8888 42.527 52.5665 41.9705 53.8456 40.8575C55.1247 39.728 55.7642 38.3492 55.7642 36.7213C55.7642 35.1432 55.3323 33.7396 54.4685 32.5103L46.2958 36.8708L42.7327 32.5851L51.329 28.0004C47.7908 24.6615 46.0217 21.8874 46.0217 19.6781C46.0383 18.4157 46.5532 17.311 47.5665 16.3642C48.5964 15.4173 49.942 14.8359 51.6031 14.62L55.7891 18.1333C52.5499 19.2794 50.9303 20.9987 50.9303 23.2911C50.9303 24.8691 51.4204 26.2479 52.4004 27.4273L59.726 23.5402L62.9403 28.0004Z" fill="#D3302F"/>
</svg>
