<svg width="71" height="38" viewBox="0 0 71 38" fill="none" xmlns="http://www.w3.org/2000/svg">
<path d="M9.84679 36.0796L9.84895 36.0804C12.365 37.0348 15.5085 37.5039 19.265 37.5039C23.3548 37.5039 26.6691 37.0361 29.1881 36.0809C31.7304 35.1327 33.626 33.8677 34.8298 32.2625L34.8299 32.2625L34.8329 32.2583C36.0227 30.6279 36.6247 28.8527 36.6247 26.9415C36.6247 24.3258 35.7299 22.1474 33.9481 20.4306L37.3644 20.4787L37.7681 20.4844V20.0807V13.601V13.2029H37.37H25.4322C25.7819 12.4993 25.9522 11.697 25.9522 10.8058C25.9522 10.4423 25.8853 10.0663 25.7583 9.67929H27.171H27.5691H28.6669H29.065H44.4671C46.9551 9.67929 48.9644 9.80599 50.502 10.0553L50.5019 10.0555L50.5124 10.0569C52.0589 10.2659 53.2901 10.5767 54.2185 10.9803L54.2185 10.9804L54.2241 10.9827C55.2031 11.3906 56.0541 11.9184 56.7809 12.5645L56.7862 12.5692L56.7917 12.5737C58.8753 14.2967 59.9507 16.9614 59.9507 20.6524C59.9507 23.3911 59.3281 25.4719 58.1337 26.9449C56.9552 28.3984 55.2178 29.148 52.8526 29.148C50.9663 29.148 49.7366 28.6567 49.0387 27.7784C48.5619 27.1417 48.2511 26.5076 48.0958 25.8742C48.4071 26.0814 48.744 26.2457 49.1057 26.3663L49.1173 26.3702L49.129 26.3733C49.7942 26.5507 50.4428 26.6409 51.0739 26.6409C52.4735 26.6409 53.6083 26.2082 54.4198 25.3012L54.4199 25.3013L54.4265 25.2936C55.2203 24.3597 55.6012 23.1606 55.6012 21.7324C55.6012 20.1494 55.0539 18.8337 53.9507 17.8209C52.8302 16.7492 51.1449 16.2522 48.9775 16.2522C46.2956 16.2522 44.146 17.1585 42.5777 18.9946C41.0227 20.7728 40.2574 23.0303 40.2574 25.7345C40.2574 29.3041 41.4375 32.1908 43.8184 34.3513L43.8215 34.3541C46.2058 36.4735 49.5964 37.5039 53.9326 37.5039C58.7621 37.5039 62.6418 36.0345 65.5254 33.0638C68.4548 30.0898 69.8947 25.9338 69.8947 20.6524C69.8947 14.4814 68.2002 9.70539 64.7545 6.39021C63.4962 5.17527 62.0444 4.15735 60.4016 3.33574C58.7899 2.50843 56.8232 1.90592 54.5104 1.52013C52.2344 1.09108 49.4566 0.878756 46.1824 0.878756H29.065H28.6669H27.5691H27.171H1.41406H1.01596V1.27686V9.28119V9.67929H1.41406H16.75C16.9359 10.0274 17.0246 10.3804 17.0246 10.7423C17.0246 11.2079 16.8294 11.662 16.3789 12.1125C15.9726 12.5188 15.4092 12.8851 14.6733 13.2029H1.47759H1.07949V13.601V20.0807V20.4844L1.4832 20.4787L4.98476 20.4294C4.18789 21.2611 3.59238 22.1293 3.20844 23.0357C2.71525 24.1579 2.47707 25.5067 2.47707 27.0686C2.47707 28.98 3.07932 30.7359 4.27191 32.326L4.27175 32.3262L4.27952 32.3359C5.5225 33.8896 7.38998 35.1314 9.84679 36.0796ZM24.8688 20.8425L24.8688 20.8426L24.874 20.8464C26.0463 21.7061 26.6171 22.817 26.6171 24.2099C26.6171 25.4349 26.1072 26.516 25.0387 27.467C24.0055 28.345 22.2001 28.8304 19.5191 28.8304C17.0575 28.8304 15.2971 28.3693 14.1694 27.5138C13.0358 26.6538 12.4846 25.5619 12.4846 24.2099C12.4846 22.8522 13.0195 21.7597 14.1112 20.9019L14.1126 20.9008C15.2385 20.0079 17.0162 19.5259 19.5191 19.5259C21.9807 19.5259 23.7411 19.987 24.8688 20.8425Z" fill="#D3302F" stroke="white" stroke-width="0.796198"/>
</svg>
