<svg width="45" height="46" viewBox="0 0 45 46" fill="none" xmlns="http://www.w3.org/2000/svg">
<path fill-rule="evenodd" clip-rule="evenodd" d="M0.212477 17.567H2.12194V42.1162H19.6895C19.9997 42.1162 20.2616 42.1407 20.4791 42.1815C20.3542 41.9121 20.189 41.6673 19.9876 41.4551C19.5566 41.0062 18.9684 40.7287 18.3279 40.7287H3.37819V14.2613H12.4456C12.7195 14.8694 13.0418 15.4448 13.4164 15.9875H5.08204V39.0026H18.3269C19.2172 39.0026 20.0431 39.3086 20.7198 39.8228V30.968C20.8044 30.9761 20.8931 30.9802 20.9777 30.9802H23.8701C23.9547 30.9802 24.0433 30.9761 24.1279 30.968V39.8228C24.8047 39.3086 25.6305 39.0026 26.5208 39.0026H39.7657V15.9875H31.4313C31.806 15.4447 32.1283 14.8693 32.4022 14.2613H41.4696V40.7287H26.5199C25.8793 40.7287 25.2912 41.0062 24.8601 41.4551C24.6587 41.6673 24.4935 41.9121 24.3687 42.1815C24.5862 42.1407 24.848 42.1162 25.1582 42.1162H42.7258V17.567H44.6353V45.6914H24.7354C23.5148 45.6914 22.4231 44.3774 22.4231 43.2511C22.4231 44.3774 21.3314 45.6914 20.1108 45.6914H0.210938L0.212477 17.567ZM20.4106 27.0234H24.4391C25.1884 27.0234 25.1884 25.8726 24.4391 25.8726H20.4106C19.6613 25.8726 19.6613 27.0234 20.4106 27.0234ZM21.5507 15.2061H23.2991V22.9389H21.5507V15.2061ZM25.7323 17.9688V24.1957C25.7323 24.8119 25.2368 25.3139 24.6285 25.3139H20.2213C19.613 25.3139 19.1216 24.8119 19.1216 24.1957V17.9688C15.8707 16.6425 13.5784 13.4187 13.5784 9.65235C13.5784 4.70234 17.5384 0.691406 22.4245 0.691406C27.311 0.691406 31.2745 4.70282 31.2745 9.65235C31.2745 13.4189 28.9783 16.6424 25.7313 17.9688H25.7323ZM20.9787 28.8359H23.8711C24.1813 28.8359 24.4392 28.5788 24.4392 28.2605V27.5219H20.4107V28.2605C20.4107 28.5788 20.6685 28.8359 20.9787 28.8359Z" fill="#D3302F"/>
</svg>
