<svg width="44" height="37" viewBox="0 0 44 37" fill="none" xmlns="http://www.w3.org/2000/svg">
<path d="M21.4571 0.276855C25.3271 0.276855 28.6354 0.692985 31.3818 1.52525C34.1699 2.35751 36.4794 3.50187 38.3104 4.95833C39.642 6.04027 40.724 7.28867 41.5562 8.70352C42.3885 10.0768 42.9919 11.6997 43.3664 13.5723C43.7825 15.4448 43.9906 17.6503 43.9906 20.1887V36.1058H0.234375V20.0639C0.234375 17.6503 0.421634 15.5281 0.796153 13.6971C1.21228 11.8245 1.81567 10.1808 2.60632 8.76594C3.43859 7.30948 4.49972 6.06108 5.78973 5.02075C7.5791 3.52268 9.70137 2.35751 12.1565 1.52525C14.6533 0.692985 17.7535 0.276855 21.4571 0.276855ZM16.838 6.89334C15.5896 6.89334 14.4661 7.22625 13.4674 7.89206C12.5103 8.55787 11.6988 9.47336 11.033 10.6385C10.492 11.5956 10.0759 12.7608 9.7846 14.134C9.53492 15.4657 9.41008 17.1094 9.41008 19.0652V31.8612L7.16297 31.7364C9.65976 29.6557 11.9277 27.5127 13.9667 25.3072C16.0058 23.1017 17.6287 20.8546 18.8355 18.5658C20.0422 16.2771 20.6456 13.9676 20.6456 11.6372C20.6456 10.7634 20.5416 9.97272 20.3335 9.2653C20.1255 8.55787 19.7301 7.99609 19.1476 7.57996C18.6066 7.12222 17.8367 6.89334 16.838 6.89334ZM29.6965 13.0105C29.6965 15.0079 29.2804 16.9637 28.4481 18.8779C27.6574 20.7921 26.5339 22.6855 25.0774 24.5581C23.6626 26.4307 21.9981 28.3241 20.0839 30.2383L18.4609 29.8638C19.5013 29.739 20.5624 29.6557 21.6443 29.6141C22.7679 29.5725 23.6002 29.5517 24.1411 29.5517H34.8149V20.2512C34.8149 17.5879 34.5652 15.4032 34.0659 13.6971C33.5665 11.9493 32.7551 10.5137 31.6315 9.39013C30.5496 8.22496 29.0723 7.24706 27.1997 6.45641L27.4494 6.20673C27.9487 6.87254 28.4481 7.76722 28.9475 8.89078C29.4468 9.97272 29.6965 11.346 29.6965 13.0105Z" fill="#D3302F"/>
</svg>
