<svg width="25" height="46" viewBox="0 0 25 46" fill="none" xmlns="http://www.w3.org/2000/svg">
<path d="M12.8598 5.3059C12.8598 7.8543 10.7938 9.92004 8.24535 9.92004C5.69695 9.92004 3.63086 7.8543 3.63086 5.3059C3.63086 2.7575 5.69695 0.691406 8.24535 0.691406C10.7938 0.691406 12.8598 2.7575 12.8598 5.3059" fill="#D3302F"/>
<path d="M14.4814 18.9178C13.9049 18.116 13.561 17.1364 13.561 16.0751C13.561 14.5691 14.247 13.2212 15.3216 12.3241C14.7796 11.6276 13.9356 11.1777 12.9834 11.1777H3.50697C1.87166 11.1777 0.544922 12.503 0.544922 14.1398V24.8412C0.544922 26.4765 1.87095 27.8036 3.5059 27.8036H4.22539V43.4067C4.22539 44.6671 5.24688 45.6907 6.50835 45.6907H9.97958C11.2421 45.6907 12.2636 44.6671 12.2636 43.4067V32.8651C11.6683 32.2122 11.2958 31.3525 11.2958 30.4011L11.2954 22.5535C11.2975 20.695 12.687 19.1587 14.4814 18.918L14.4814 18.9178Z" fill="#D3302F"/>
<path d="M21.9191 20.3818H14.9697C13.7696 20.3818 12.7969 21.3531 12.7969 22.5532V30.401C12.7969 31.6004 13.7693 32.5734 14.9689 32.5734H15.4963V44.0159C15.4963 44.9408 16.2461 45.6914 17.1714 45.6914H19.7174C20.6433 45.6914 21.3925 44.9409 21.3925 44.0159L21.3922 32.5734H21.9205C23.1196 32.5734 24.0926 31.601 24.0926 30.401L24.0923 22.5532C24.0919 21.3531 23.1195 20.3818 21.9191 20.3818H21.9191Z" fill="#D3302F"/>
<path d="M15.9467 18.3515C16.1277 18.5496 16.3303 18.7296 16.5535 18.8809C17.0931 19.2454 17.7438 19.4585 18.4445 19.4585C19.1448 19.4585 19.796 19.2454 20.3355 18.8809C21.2364 18.2724 21.8279 17.2424 21.8279 16.0744C21.8279 14.2054 20.3136 12.6904 18.4439 12.6904C17.4433 12.6904 16.5474 13.1271 15.9279 13.8173C15.3905 14.4157 15.0605 15.2053 15.0605 16.0741C15.0609 16.9519 15.3985 17.7499 15.9467 18.3515L15.9467 18.3515Z" fill="#D3302F"/>
</svg>
