<svg width="46" height="46" viewBox="0 0 46 46" fill="none" xmlns="http://www.w3.org/2000/svg">
<path d="M43.6262 21.6725H42.1251C41.9079 18.6386 40.9794 15.6986 39.4145 13.0909C37.8497 10.4829 35.6927 8.28007 33.118 6.66094H43.6262C44.1627 6.66094 44.6583 6.37478 44.9264 5.91035C45.1944 5.44592 45.1944 4.87359 44.9264 4.40917C44.6583 3.94475 44.1627 3.65858 43.6262 3.65858H26.8431C26.4195 2.49212 25.5339 1.55221 24.3946 1.06034C23.2553 0.56843 21.9639 0.56843 20.8246 1.06034C19.6853 1.55224 18.7997 2.49212 18.3761 3.65858H1.59296C1.05648 3.65858 0.560916 3.94474 0.292848 4.40917C0.0247799 4.8736 0.0247799 5.44593 0.292848 5.91035C0.560916 6.37477 1.0565 6.66094 1.59296 6.66094H12.2067C9.6138 8.27003 7.43743 10.4682 5.85416 13.0765C4.27089 15.6847 3.32532 18.6301 3.09439 21.6726H1.59321C1.19513 21.6726 0.813131 21.8308 0.531664 22.1123C0.250197 22.3937 0.0920325 22.7758 0.0920325 23.1738V29.1785C0.0920325 29.5766 0.250197 29.9586 0.531664 30.2401C0.813131 30.5216 1.19513 30.6797 1.59321 30.6797H7.59793C7.99601 30.6797 8.37801 30.5216 8.65948 30.2401C8.94095 29.9586 9.09911 29.5766 9.09911 29.1785V23.1738C9.09911 22.7758 8.94095 22.3937 8.65948 22.1123C8.37801 21.8308 7.99601 21.6726 7.59793 21.6726H6.09675C6.39899 18.2595 7.76109 15.0259 9.99278 12.4254C12.2245 9.82482 15.2137 7.98755 18.5414 7.17091C19.0461 8.16478 19.9009 8.93613 20.9414 9.33587C21.9815 9.73563 23.1328 9.73563 24.1733 9.33587C25.2134 8.93611 26.0685 8.16478 26.5728 7.17091C29.914 7.98081 32.919 9.81341 35.169 12.4129C37.4188 15.0126 38.801 18.2494 39.1231 21.6722H37.6219C37.2238 21.6722 36.8418 21.8304 36.5603 22.1119C36.2789 22.3933 36.1207 22.7753 36.1207 23.1734V29.1781C36.1207 29.5762 36.2789 29.9582 36.5603 30.2397C36.8418 30.5211 37.2238 30.6793 37.6219 30.6793H43.6266C44.0247 30.6793 44.4067 30.5211 44.6881 30.2397C44.9696 29.9582 45.1278 29.5762 45.1278 29.1781V23.1734C45.1278 22.7753 44.9696 22.3933 44.6881 22.1119C44.4067 21.8304 44.0247 21.6722 43.6266 21.6722L43.6262 21.6725ZM6.09675 27.6772H3.09439V24.6748H6.09675V27.6772ZM22.6097 6.66068C22.2116 6.66068 21.8296 6.50252 21.5482 6.22105C21.2667 5.93958 21.1085 5.55758 21.1085 5.1595C21.1085 4.76142 21.2667 4.37942 21.5482 4.09795C21.8296 3.81648 22.2116 3.65832 22.6097 3.65832C23.0078 3.65832 23.3898 3.81648 23.6713 4.09795C23.9527 4.37942 24.1109 4.76142 24.1109 5.1595C24.1109 5.55758 23.9527 5.93958 23.6713 6.22105C23.3898 6.50252 23.0078 6.66068 22.6097 6.66068ZM42.1251 27.6772H39.1227V24.6748H42.1251V27.6772Z" fill="#D3302F"/>
<path d="M28.6149 26.1759V17.1689H30.1161C30.6526 17.1689 31.1482 16.8827 31.4162 16.4183C31.6843 15.9538 31.6843 15.3815 31.4162 14.9171C31.1482 14.4527 30.6526 14.1665 30.1161 14.1665H15.1043C14.5678 14.1665 14.0723 14.4527 13.8042 14.9171C13.5361 15.3815 13.5361 15.9539 13.8042 16.4183C14.0723 16.8827 14.5679 17.1689 15.1043 17.1689H16.6055V26.1759L4.85169 43.3494C4.58329 43.8139 4.58329 44.3862 4.85169 44.8506C4.96697 45.0878 5.14288 45.2906 5.36169 45.438C5.5805 45.5858 5.83416 45.6732 6.09753 45.6913H39.1235C39.3949 45.6907 39.6613 45.6163 39.8938 45.4762C40.1267 45.3361 40.3167 45.1354 40.4444 44.8959C40.565 44.661 40.6216 44.3986 40.6082 44.1352C40.5952 43.8715 40.5128 43.6162 40.3693 43.3947L28.6149 26.1759ZM25.6126 17.1689V26.5817C25.6143 26.8853 25.7027 27.1822 25.8679 27.4372L28.0895 30.6798H17.1309L19.3525 27.4372C19.5177 27.1822 19.6061 26.8853 19.6078 26.5817V17.1689H25.6126ZM8.93404 42.6889L15.104 33.6818H30.1158L36.2706 42.6889H8.93404Z" fill="#D3302F"/>
</svg>
