<svg width="41" height="46" viewBox="0 0 41 46" fill="none" xmlns="http://www.w3.org/2000/svg">
<path d="M0.126953 45.6914H40.3099C39.866 36.1944 33.5762 29.2545 25.4356 26.9168V20.4151C27.6557 19.4652 28.6174 18.0043 29.5795 16.3242C29.8758 16.4705 30.3198 16.4705 30.6155 16.4705C32.5394 16.4705 34.2417 14.8633 34.2417 12.9641C34.2417 11.0648 32.6874 9.53056 30.7637 9.45764C29.8758 4.49029 25.5093 0.691406 20.2554 0.691406C15.001 0.691406 10.5613 4.49029 9.67342 9.45764C7.74951 9.53051 6.19534 11.0648 6.19534 12.9641C6.19534 14.8633 7.82338 16.4705 9.74729 16.4705C10.1174 16.4705 10.6352 16.3976 10.9314 16.3242C11.8193 18.0043 12.8554 19.3924 15.0754 20.4151V26.9168C6.93494 29.2547 0.645058 36.1946 0.127046 45.6914H0.126953ZM30.9857 11.7217C31.5778 11.7946 32.0955 12.3791 32.0955 13.0364C32.0955 13.7672 31.5034 14.3511 30.7637 14.3511H30.6156C30.7637 13.4752 30.9119 12.5986 30.9857 11.7217H30.9857ZM9.74719 14.2789C9.00696 14.2789 8.41542 13.6944 8.41542 12.9642C8.41542 12.3068 8.85935 11.7952 9.52523 11.6495C9.52523 12.526 9.67338 13.4029 9.96916 14.2066C9.89535 14.279 9.82101 14.279 9.7472 14.279L9.74719 14.2789ZM23.2155 28.1589H17.2952V21.4381C18.0355 21.8034 19.0714 21.9497 20.255 21.9497C21.4392 21.9497 22.4752 21.7306 23.2148 21.4381L23.2155 28.1589ZM12.6335 15.0824C12.4116 14.6442 12.2634 14.206 12.1153 13.7678C11.8933 13.1104 11.8195 12.3796 11.7451 11.6495V11.3575C11.7451 10.9192 11.819 10.6267 11.819 10.2619C11.819 10.1157 11.8928 9.89653 11.8928 9.89653H28.5432C28.5432 9.89653 28.617 10.1157 28.617 10.2619C28.6908 10.6273 28.6908 10.9926 28.6908 11.3575V11.5766C28.6908 12.3073 28.5427 12.9647 28.3207 13.6949C28.1725 14.1331 28.0249 14.5714 27.8024 15.0096C27.2103 16.2514 26.2481 17.2741 25.1384 18.0778C24.4725 18.516 23.8066 18.8814 23.0663 19.1734C22.1784 19.4654 21.2163 19.685 20.1802 19.685C19.1442 19.685 18.1821 19.4659 17.2942 19.1734C16.5539 18.8814 15.8143 18.516 15.2221 18.0778C14.1872 17.3471 13.2255 16.2515 12.6334 15.0825L12.6335 15.0824Z" fill="#D3302F"/>
</svg>
