<svg width="42" height="46" viewBox="0 0 42 46" fill="none" xmlns="http://www.w3.org/2000/svg">
<path d="M30.145 11.5429C29.8606 11.427 29.6675 11.1554 29.6491 10.845C29.5747 9.41427 28.8714 8.09214 27.7319 7.24257C26.5926 6.39299 25.1376 6.1056 23.7666 6.45864C23.4865 6.5286 23.1915 6.43891 22.9952 6.22508C21.6525 4.73901 19.7535 3.89595 17.7648 3.90238C15.2104 3.90776 12.8527 5.29119 11.5766 7.53241C11.4282 7.79361 11.1484 7.94859 10.8516 7.93424L10.7415 7.92778C10.7039 7.92061 10.665 7.92061 10.6246 7.92061C9.38144 7.92742 8.18969 8.42469 7.30205 9.30657C6.41448 10.1884 5.90095 11.3857 5.87012 12.6446C5.86587 12.8549 5.78016 13.0551 5.63211 13.2022C4.52179 14.3015 3.79608 15.7376 3.56442 17.2925C3.33279 18.8478 3.60798 20.4368 4.3482 21.8192C4.50546 22.1112 4.46862 22.4714 4.25541 22.7247C3.76028 23.2991 3.4865 24.035 3.48438 24.7973C3.48579 25.5378 3.73903 26.2554 4.20122 26.829C4.66377 27.4027 5.30692 27.7974 6.02311 27.947C6.39252 28.023 6.65779 28.3524 6.65779 28.7345V32.8339H9.03785V23.19C9.03926 22.6422 9.13312 22.0986 9.31552 21.5827H9.03785C9.03785 20.7303 8.70351 19.9126 8.10849 19.3095C7.51313 18.7068 6.70594 18.3681 5.86444 18.3681V16.7608C6.83523 16.7622 7.78263 17.064 8.57952 17.6262C9.37606 18.1884 9.98379 18.9841 10.3214 19.9061C11.2188 18.9263 12.4783 18.3688 13.7979 18.3681C14.5155 18.3667 15.2111 18.1191 15.7718 17.6656C16.3325 17.2121 16.7249 16.5796 16.8849 15.871C15.7951 15.6626 14.8113 15.0753 14.1032 14.2106C13.3949 13.3463 13.0063 12.2585 13.0046 11.1353H14.5913C14.5927 11.8621 14.8371 12.5668 15.2848 13.1347C15.7324 13.7027 16.3568 14.1002 17.0563 14.2623C17.2349 13.3098 17.6924 12.4333 18.3692 11.7477C19.046 11.0621 19.9113 10.5985 20.8516 10.4178C20.6916 9.70918 20.2991 9.07662 19.7385 8.62318C19.1778 8.16969 18.4823 7.92213 17.7646 7.9207V6.31339C18.8995 6.31483 19.9963 6.7267 20.858 7.47479C21.7193 8.22319 22.2885 9.25862 22.4627 10.3945C23.584 10.571 24.6062 11.1475 25.345 12.0201C26.0834 12.893 26.4901 14.0041 26.4915 15.1536C26.4915 16.006 26.8258 16.8237 27.4209 17.4268C28.0162 18.0295 28.8234 18.3682 29.6649 18.3682V19.9755C28.6906 19.9744 27.74 19.6702 26.9417 19.1044C26.1434 18.5386 25.5356 17.7382 25.2009 16.8115C24.4565 16.9313 23.7785 17.3152 23.2884 17.895C22.7978 18.4747 22.5272 19.212 22.5248 19.9755H20.9381C20.9395 18.8364 21.339 17.7342 22.0658 16.8649C22.7926 15.9956 23.7998 15.4148 24.9087 15.226C24.9048 15.2009 24.9048 15.1776 24.9048 15.1535C24.9048 14.0051 24.2999 12.9438 23.3181 12.3695C22.3364 11.7955 21.1265 11.7955 20.1447 12.3695C19.1629 12.9439 18.558 14.0052 18.558 15.1535C18.5566 16.4319 18.0547 17.6578 17.1625 18.5619C16.27 19.4656 15.0598 19.974 13.7979 19.9755C12.9564 19.9755 12.1492 20.3141 11.5539 20.9169C10.9588 21.52 10.6245 22.3377 10.6245 23.1901V32.8339H13.0046V25.7313C13.0046 25.412 13.1916 25.1228 13.4806 24.9951C14.7471 24.4339 15.8252 23.5126 16.5849 22.343C16.7039 22.1604 16.8909 22.0348 17.103 21.995C17.3155 21.9552 17.5344 22.005 17.7097 22.1324C18.7277 22.8496 19.9506 23.2073 21.1891 23.1506C22.4277 23.0936 23.6134 22.625 24.563 21.8174C24.8116 21.5996 25.1672 21.5601 25.4569 21.7176C26.8028 22.4567 28.3899 22.5999 29.8438 22.1141C31.2973 21.6279 32.4884 20.5559 33.1359 19.1506C33.7829 17.7452 33.829 16.1319 33.2626 14.691C32.6967 13.2505 31.5686 12.1103 30.1448 11.5402L30.145 11.5429Z" fill="#D3302F"/>
<path d="M35.4564 11.9854C33.8073 8.05067 30.867 4.8142 27.1326 2.82371C23.3981 0.833225 19.0992 0.211519 14.9639 1.06321C10.829 1.91493 7.11123 4.18809 4.44095 7.49813C1.77049 10.8078 0.311272 14.951 0.310547 19.225V45.6914H17.7642V41.6731C17.7642 41.2293 18.1195 40.8695 18.5576 40.8695H31.2512C32.7235 40.8677 34.1353 40.2746 35.1761 39.2198C36.2174 38.1654 36.8028 36.7353 36.8046 35.2439V26.4037C36.8046 25.9599 37.1599 25.6001 37.598 25.6001H41.1592L35.4564 11.9854ZM28.0782 23.9933C27.0816 23.9926 26.0963 23.7813 25.185 23.373C24.0743 24.1885 22.7578 24.6682 21.389 24.7564C20.0197 24.8446 18.6544 24.5375 17.4505 23.8713C16.6756 24.8597 15.7005 25.6683 14.5913 26.2435V33.6371C14.5913 33.8502 14.5077 34.0547 14.359 34.2054C14.2102 34.3561 14.0083 34.4408 13.7979 34.4408H5.86445C5.42634 34.4408 5.0711 34.0809 5.0711 33.6371V29.344C4.14419 29.0093 3.34241 28.393 2.77428 27.5788C2.20619 26.7651 1.90018 25.7935 1.8977 24.7969C1.90124 23.8404 2.18777 22.9073 2.72044 22.1176C2.17891 20.9437 1.89805 19.6635 1.8977 18.3677C1.89132 16.1013 2.75162 13.9207 4.29833 12.2833C4.41804 10.6942 5.11258 9.20567 6.24916 8.10389C7.38569 7.0021 8.88389 6.36423 10.4564 6.31289C11.8755 4.09563 14.2018 2.63978 16.7946 2.34661C19.3872 2.05313 21.973 2.9533 23.8402 4.79881C25.5325 4.50317 27.2704 4.91685 28.6555 5.94477C30.0403 6.97299 30.9534 8.52721 31.185 10.2508C33.1383 11.2091 34.5553 13.0155 35.0356 15.1595C35.5162 17.3036 35.0076 19.5527 33.654 21.2712C32.3003 22.9897 30.2486 23.9914 28.0782 23.9933V23.9933Z" fill="#D3302F"/>
</svg>
