<svg width="87" height="93" viewBox="0 0 87 93" fill="none" xmlns="http://www.w3.org/2000/svg">
<path d="M11.0079 92.3248C6.47772 84.6738 3.35693 76.7208 1.64552 68.4658C0.0347871 60.1101 -0.116219 51.9054 1.1925 43.8518C2.50122 35.6974 5.21934 27.9458 9.34685 20.5968C13.575 13.1471 19.1623 6.45252 26.1085 0.512939L36.226 6.7042C38.0381 7.81158 38.8434 9.22097 38.6421 10.9324C38.4407 12.6438 37.8367 14.0532 36.83 15.1606C34.5146 17.9793 32.4005 21.5532 30.4877 25.882C28.575 30.2109 27.2663 34.9927 26.5616 40.2276C25.9575 45.4625 26.1589 50.9491 27.1656 56.6873C28.1723 62.4255 30.3367 68.0631 33.6589 73.6C35.2696 76.1168 35.7226 78.3819 35.0179 80.3953C34.4139 82.308 32.9542 83.6671 30.6387 84.4725L11.0079 92.3248ZM59.1789 92.3248C54.6488 84.6738 51.528 76.7208 49.8165 68.4658C48.2058 60.1101 48.0548 51.9054 49.3635 43.8518C50.6722 35.6974 53.3904 27.9458 57.5179 20.5968C61.746 13.1471 67.3333 6.45252 74.2796 0.512939L84.397 6.7042C86.2091 7.81158 87.0144 9.22097 86.8131 10.9324C86.6118 12.6438 86.0077 14.0532 85.001 15.1606C82.6856 17.9793 80.5715 21.5532 78.6588 25.882C76.746 30.2109 75.4373 34.9927 74.7326 40.2276C74.1286 45.4625 74.3299 50.9491 75.3366 56.6873C76.3433 62.4255 78.5077 68.0631 81.8299 73.6C83.4406 76.1168 83.8936 78.3819 83.1889 80.3953C82.5849 82.308 81.1252 83.6671 78.8098 84.4725L59.1789 92.3248Z" fill="#D3302F" fill-opacity="0.2"/>
</svg>
