<svg width="45" height="46" viewBox="0 0 45 46" fill="none" xmlns="http://www.w3.org/2000/svg">
<path d="M43.2039 38.6312L34.9463 23.373V13.9769H35.213C36.1227 13.9769 36.8629 13.2368 36.8629 12.327V11.4384C36.8629 10.5287 36.1227 9.78851 35.213 9.78851L25.2829 9.78815C24.3731 9.78815 23.6329 10.5283 23.6329 11.4381V12.3266C23.6329 13.2364 24.3731 13.9766 25.2829 13.9766H25.5485V23.3727L21.3582 31.1149V16.5412C22.5418 16.4406 23.4739 15.4455 23.4739 14.2371C23.4739 12.9623 22.4367 11.9249 21.1613 11.9249H17.3755L18.3193 10.2895L15.7804 5.89062L10.701 5.89133L8.16211 10.2902L10.1587 13.7491C10.1244 13.9085 10.1045 14.0714 10.1045 14.2375C10.1045 15.4461 11.0366 16.4413 12.2202 16.5415V40.4415C12.2202 42.9612 14.2703 45.0106 16.7893 45.0106C17.3875 45.0106 17.9629 44.892 18.5083 44.6685C19.2591 45.0677 20.1859 45.2847 21.2555 45.2847H39.2389C41.2002 45.2847 42.7014 44.5779 43.4656 43.2956C44.2302 42.0129 44.1377 40.3562 43.2039 38.6312ZM26.8178 23.694V21.5917V20.3225L26.8175 19.0532V17.784V16.5147L26.8178 15.2455L26.8175 13.9762H34.1352V12.707H25.2823C25.0727 12.707 24.9016 12.5363 24.9016 12.3262V11.4377C24.9016 11.2273 25.0727 11.057 25.2823 11.057H35.2124C35.422 11.057 35.5931 11.2277 35.5931 11.4377V12.3259C35.5931 12.5363 35.422 12.7066 35.2124 12.7066H33.6765V23.6938L38.3101 32.2552H22.1842L26.8178 23.694ZM11.4336 7.16105H15.0472L16.8538 10.2907L15.0472 13.4195H11.4336L9.62709 10.2907L11.4336 7.16105ZM11.48 14.6883H15.7804L16.6431 13.1945H21.1616C21.7368 13.1945 22.2046 13.662 22.2046 14.2375C22.2046 14.8126 21.7371 15.2804 21.1616 15.2804H20.0893L20.0889 25.4H13.4887V24.1308V22.8615V21.5923V20.323V19.0538V17.7845V16.5152V15.246H12.8541V15.2804H12.416C12.0035 15.2804 11.6489 15.0375 11.48 14.6883ZM13.4887 40.4415V39.3617V38.0924V36.8232V35.5539V34.2847V33.0154V31.7462V30.4769V29.2077V27.9384V26.6692H20.0889V33.4613L17.2908 38.6318C16.3573 40.3564 16.2638 42.0135 17.0277 43.2965C17.112 43.4379 17.2083 43.5692 17.3106 43.6967C17.1396 43.7237 16.9661 43.7424 16.7886 43.7424C14.9694 43.7414 13.4887 42.261 13.4887 40.4415ZM42.375 42.6463C41.8491 43.5292 40.735 44.0155 39.2383 44.0155H21.2549C19.7582 44.0155 18.6441 43.5292 18.1178 42.6463C17.5912 41.7631 17.6943 40.5516 18.4061 39.2352L21.4963 33.525H38.9966L42.0869 39.2352C42.7994 40.5516 42.902 41.7624 42.375 42.6463Z" fill="#D3302F"/>
<path fill-rule="evenodd" clip-rule="evenodd" d="M23.846 13.7963C23.8695 13.9398 23.8817 14.0871 23.8817 14.2372C23.8817 15.5295 22.9763 16.6133 21.766 16.8888V29.5087L25.1426 23.2697V14.3787C24.6395 14.3445 24.1855 14.1286 23.846 13.7963ZM11.6695 7.56796L10.0978 10.2907L11.6694 13.0128H14.8133L16.385 10.2907L14.8133 7.56796H11.6695ZM21.7397 33.9319L18.7649 39.4288C18.0871 40.6822 18.0455 41.7291 18.4682 42.4381C18.8907 43.1469 19.831 43.6088 21.2558 43.6088H39.2393C40.6642 43.6088 41.6044 43.1469 42.0265 42.4382C42.4496 41.7285 42.4084 40.6821 41.7301 39.429L38.7552 33.9319H21.7397Z" fill="#D3302F"/>
<path d="M21.8861 8.36479C23.6937 8.36479 25.1835 6.9843 25.3589 5.22249H37.123C37.3851 6.63834 38.5021 7.75537 39.9175 8.01702V16.8048C38.2959 17.1044 37.0628 18.5262 37.0628 20.2339C37.0628 22.1587 38.6282 23.724 40.5522 23.724C42.4769 23.724 44.0426 22.1587 44.0426 20.2339C44.0426 18.5266 42.8088 17.104 41.1868 16.8048L41.1864 8.01738C42.8084 7.71777 44.0423 6.29591 44.0423 4.58822C44.0423 2.66349 42.4765 1.09814 40.5518 1.09814C38.8448 1.09814 37.4222 2.33131 37.1227 3.9536L25.2488 3.95395C24.8433 2.47609 23.4912 1.38535 21.8858 1.38535C19.9617 1.38535 18.3965 2.9507 18.3965 4.87543C18.3961 6.80016 19.9615 8.36478 21.8858 8.36478L21.8861 8.36479ZM42.7734 20.2341C42.7734 21.4587 41.7769 22.4549 40.5523 22.4549C39.3283 22.4549 38.3322 21.4587 38.3322 20.2341C38.3322 19.0095 39.3283 18.0133 40.5523 18.0133C41.7769 18.0133 42.7734 19.0095 42.7734 20.2341V20.2341ZM40.5523 2.36758C41.7769 2.36758 42.7734 3.36376 42.7734 4.5884C42.7734 5.81305 41.7769 6.80923 40.5523 6.80923C39.3283 6.80923 38.3322 5.81305 38.3322 4.5884C38.3322 3.3634 39.3283 2.36758 40.5523 2.36758V2.36758ZM21.8861 2.65444C23.1111 2.65444 24.1073 3.65062 24.1073 4.87526C24.1073 6.09991 23.1111 7.09609 21.8861 7.09609C20.6622 7.09609 19.666 6.09991 19.666 4.87526C19.6656 3.65026 20.6618 2.65444 21.8861 2.65444V2.65444Z" fill="#D3302F"/>
<path fill-rule="evenodd" clip-rule="evenodd" d="M36.8 3.54687C37.2564 1.90271 38.7637 0.691406 40.5524 0.691406C42.7017 0.691406 44.4496 2.43884 44.4496 4.5883C44.4496 6.37782 43.2377 7.88427 41.5938 8.34069L41.5941 16.4815C43.2381 16.9378 44.45 18.4449 44.45 20.234C44.45 22.3835 42.7021 24.1309 40.5527 24.1309C38.404 24.1309 36.6566 22.3833 36.6566 20.234C36.6566 18.4446 37.8677 16.9381 39.5113 16.4816V8.34028C38.199 7.97567 37.1653 6.94181 36.8004 5.62937H25.71C25.3575 7.41843 23.7785 8.77167 21.8867 8.77167H21.8738C19.7307 8.76487 17.9899 7.02083 17.9902 4.8755M36.8 3.54687L25.5464 3.5472C25.0026 2.05213 23.5704 0.978611 21.8864 0.978611C19.7376 0.978611 17.9903 2.72619 17.9902 4.8755M40.5524 1.50503C39.0459 1.50503 37.788 2.5939 37.5233 4.02754L37.4618 4.36047L24.9391 4.36085L24.8571 4.06167C24.4985 2.75488 23.3028 1.79223 21.8864 1.79223C20.187 1.79223 18.8039 3.17539 18.8039 4.8755C18.8035 6.5754 20.1866 7.95804 21.8864 7.95804H21.8939C23.4868 7.95435 24.8 6.73606 24.9546 5.18227L24.9911 4.81575H37.462L37.5236 5.14852C37.755 6.39873 38.7424 7.38606 39.992 7.61705L40.3249 7.67858V17.1434L39.992 17.2049C38.559 17.4696 37.4702 18.7268 37.4702 20.234C37.4702 21.9341 38.8535 23.3173 40.5527 23.3173C42.2528 23.3173 43.6364 21.934 43.6364 20.234C43.6364 18.7272 42.5469 17.4694 41.1135 17.2049L40.7806 17.1435L40.7802 7.6789L41.1131 7.61741C42.5466 7.35261 43.636 6.09533 43.636 4.5883C43.636 2.8883 42.2525 1.50503 40.5524 1.50503ZM40.5528 2.77446C39.5536 2.77446 38.7395 3.5881 38.7395 4.58848C38.7395 5.58854 39.5537 6.40249 40.5528 6.40249C41.5529 6.40249 42.3672 5.58836 42.3672 4.58848C42.3672 3.58859 41.5529 2.77446 40.5528 2.77446ZM37.9259 4.58848C37.9259 3.13884 39.1042 1.96084 40.5528 1.96084C42.0021 1.96084 43.1808 3.13907 43.1808 4.58848C43.1808 6.03789 42.0021 7.21612 40.5528 7.21612C39.1041 7.21612 37.9259 6.03771 37.9259 4.58848ZM21.8867 3.06132C20.887 3.06132 20.0731 3.875 20.0734 4.87522C20.0734 5.87528 20.8875 6.68935 21.8867 6.68935C22.887 6.68935 23.701 5.87526 23.701 4.87534C23.701 3.87541 22.887 3.06132 21.8867 3.06132ZM19.2598 4.87534C19.2594 3.42559 20.4378 2.2477 21.8867 2.2477C23.3363 2.2477 24.5147 3.42597 24.5147 4.87534C24.5147 6.3247 23.3363 7.50298 21.8867 7.50298C20.438 7.50298 19.2598 6.32452 19.2598 4.87534ZM40.5528 18.4202C39.5537 18.4202 38.7395 19.2341 38.7395 20.2342C38.7395 21.2342 39.5537 22.0482 40.5528 22.0482C41.5529 22.0482 42.3672 21.2341 42.3672 20.2342C42.3672 19.2343 41.5529 18.4202 40.5528 18.4202ZM37.9259 20.2342C37.9259 18.7849 39.1041 17.6065 40.5528 17.6065C42.0021 17.6065 43.1808 18.7848 43.1808 20.2342C43.1808 21.6836 42.0021 22.8618 40.5528 22.8618C39.1041 22.8618 37.9259 21.6834 37.9259 20.2342Z" fill="#D3302F"/>
<path d="M8.24759 9.91309L10.7865 5.51422L8.24759 1.11572H3.1685L0.628906 5.51459L3.1685 9.91345L8.24759 9.91309ZM3.90122 2.38506H7.51487L9.32137 5.51468L7.51487 8.64429H3.90122L2.09471 5.5144L3.90122 2.38506Z" fill="#D3302F"/>
<path fill-rule="evenodd" clip-rule="evenodd" d="M2.93266 0.708984H8.48153L11.2552 5.51429L8.48155 10.32L2.93267 10.3204L0.158203 5.51466L2.93266 0.708984ZM3.40241 1.52261L1.09768 5.51466L3.4024 9.50669L8.01171 9.50636L10.3158 5.5143L8.01172 1.52261H3.40241ZM3.66537 1.97833H7.7488L9.79013 5.51475L7.7488 9.05117H3.66535L1.62403 5.51446L3.66537 1.97833ZM4.13514 2.79195L2.56347 5.5145L4.13516 8.23755H7.27901L8.85069 5.51475L7.27901 2.79195H4.13514Z" fill="#D3302F"/>
<path d="M8.24759 19.1832L10.7865 14.7844L8.24759 10.3862H3.1685L0.628906 14.7844L3.1685 19.1832H8.24759ZM3.90122 11.6556H7.51487L9.32137 14.7845L7.51487 17.9141H3.90122L2.09471 14.7848L3.90122 11.6556Z" fill="#D3302F"/>
<path fill-rule="evenodd" clip-rule="evenodd" d="M2.93269 9.97949H8.48153L11.2552 14.7844L8.48155 19.5901H2.93267L0.158203 14.7844L2.93269 9.97949ZM3.4024 10.7931L1.0977 14.7845L3.40242 18.7765H8.01173L10.3158 14.7845L8.01174 10.7931H3.4024ZM3.66538 11.2488H7.74878L9.79016 14.7845L7.74881 18.321H3.66538L1.62402 14.7849L3.66538 11.2488ZM4.13515 12.0625L2.56349 14.7849L4.13515 17.5073H7.27902L8.85069 14.7846L7.27905 12.0625H4.13515Z" fill="#D3302F"/>
</svg>
