<svg width="39" height="46" viewBox="0 0 39 46" fill="none" xmlns="http://www.w3.org/2000/svg">
<path d="M36.505 45.1447H8.9339C6.65863 45.1447 4.80273 43.2885 4.80273 41.0135C4.80273 38.7382 6.65887 36.8823 8.9339 36.8823C9.2133 36.8823 9.43287 37.1019 9.43287 37.3813C9.43287 37.6607 9.2133 37.8803 8.9339 37.8803C7.20774 37.8803 5.80073 39.2873 5.80073 41.0134C5.80073 42.7396 7.20774 44.1466 8.9339 44.1466H34.4795C33.811 43.3883 33.392 42.2707 33.392 41.0134C33.392 39.7561 33.8111 38.6386 34.4795 37.8803H32.4936C32.2142 37.8803 31.9946 37.6607 31.9946 37.3813C31.9946 37.1019 32.2142 36.8823 32.4936 36.8823H36.505C36.7844 36.8823 37.004 37.1019 37.004 37.3813C37.004 37.6607 36.7844 37.8803 36.505 37.8803C35.3574 37.8803 34.3895 39.3174 34.3895 41.0134C34.3895 42.7099 35.3573 44.1466 36.505 44.1466C36.7844 44.1466 37.004 44.3662 37.004 44.6456C37.004 44.925 36.7844 45.1446 36.505 45.1446L36.505 45.1447Z" fill="#D3302F"/>
<path fill-rule="evenodd" clip-rule="evenodd" d="M35.6059 44.5978H35.9023C35.721 44.5392 35.5496 44.4555 35.3892 44.352L35.6059 44.5978ZM35.389 37.6748C35.5494 37.5712 35.7208 37.4875 35.9021 37.4289H35.6058L35.389 37.6748ZM36.5049 44.6932C36.5049 44.6932 36.5049 44.6932 36.5049 44.6932ZM4.25586 41.0133C4.25586 38.4361 6.35679 36.3354 8.93375 36.3354C9.5151 36.3354 9.97944 36.7998 9.97944 37.3811C9.97944 37.9625 9.51509 38.4268 8.93375 38.4268C7.50954 38.4268 6.34729 39.5891 6.34729 41.0133C6.34729 42.4375 7.50954 43.5997 8.93375 43.5997H33.4512C33.0634 42.853 32.8451 41.9625 32.8451 41.0133C32.8451 40.064 33.0634 39.1735 33.4512 38.4268H32.4934C31.9121 38.4268 31.4477 37.9625 31.4477 37.3811C31.4477 36.7998 31.9121 36.3354 32.4934 36.3354H36.5049C37.0862 36.3354 37.5506 36.7998 37.5506 37.3811C37.5506 37.9625 37.0862 38.4268 36.5049 38.4268C36.174 38.4268 35.7936 38.6368 35.47 39.1164C35.1511 39.5891 34.9361 40.2638 34.9361 41.0133C34.9361 41.763 35.1511 42.4377 35.4699 42.9103C35.7935 43.3898 36.1739 43.5997 36.5049 43.5997C37.0862 43.5997 37.5506 44.0641 37.5506 44.6454C37.5506 45.1275 37.2313 45.5291 36.7908 45.6522L36.7576 45.6912H8.93375C6.35651 45.6912 4.25586 43.5903 4.25586 41.0133Z" fill="#D3302F"/>
<path d="M32.4931 37.8903H4.91242C2.63715 37.8903 0.78125 36.0341 0.78125 33.7591C0.78125 31.4838 2.63739 29.6279 4.91242 29.6279H32.4931C32.7725 29.6279 32.9921 29.8475 32.9921 30.1269C32.9921 30.4063 32.7725 30.6259 32.4931 30.6259C31.3455 30.6259 30.3776 32.063 30.3776 33.759C30.3776 35.4555 31.3454 36.8922 32.4931 36.8922C32.7725 36.8922 32.9921 37.1118 32.9921 37.3912C32.9921 37.6706 32.7725 37.8902 32.4931 37.8902V37.8903ZM4.91242 30.6256C3.18626 30.6256 1.77924 32.0326 1.77924 33.7588C1.77924 35.4849 3.18626 36.8919 4.91242 36.8919H30.458C29.7896 36.1336 29.3705 35.016 29.3705 33.7588C29.3705 32.5015 29.7896 31.3839 30.458 30.6256H4.91242Z" fill="#D3302F"/>
<path fill-rule="evenodd" clip-rule="evenodd" d="M31.5841 30.1745L31.354 30.4355C31.5209 30.325 31.7001 30.2359 31.8901 30.1745H31.5841ZM31.3554 37.0832L31.5847 37.3434H31.8903C31.7008 37.2821 31.522 37.1934 31.3554 37.0832ZM33.0397 38.2845V38.4368H4.91226C2.33503 38.4368 0.234375 36.3359 0.234375 33.7589C0.234375 31.1817 2.33531 29.0811 4.91226 29.0811H32.4929C33.0743 29.0811 33.5386 29.5454 33.5386 30.1267C33.5386 30.7081 33.0743 31.1724 32.4929 31.1724C32.1621 31.1724 31.7817 31.3824 31.458 31.862C31.1391 32.3347 30.9241 33.0093 30.9241 33.7589C30.9241 34.5086 31.1391 35.1833 31.458 35.6558C31.7816 36.1354 32.162 36.3453 32.4929 36.3453C33.0743 36.3453 33.5386 36.8097 33.5386 37.391C33.5386 37.7714 33.3399 38.1016 33.0397 38.2845ZM4.91226 31.1722C3.48805 31.1722 2.32581 32.3344 2.32581 33.7586C2.32581 35.1828 3.48805 36.3451 4.91226 36.3451H29.4297C29.0419 35.5983 28.8236 34.7078 28.8236 33.7586C28.8236 32.8094 29.0419 31.9189 29.4298 31.1722H4.91226Z" fill="#D3302F"/>
<path d="M37.7727 30.6256H32.4939C32.2145 30.6256 31.9949 30.4061 31.9949 30.1267C31.9949 29.8473 32.2145 29.6277 32.4939 29.6277H35.7471C35.0786 28.8694 34.6596 27.7517 34.6596 26.4945C34.6596 25.2372 35.0787 24.1196 35.7471 23.3613H10.2015C8.47532 23.3613 7.0683 24.7683 7.0683 26.4945C7.0683 28.2207 8.47532 29.6277 10.2015 29.6277C10.4809 29.6277 10.7005 29.8473 10.7005 30.1267C10.7005 30.4061 10.4809 30.6256 10.2015 30.6256C7.92621 30.6256 6.07031 28.7695 6.07031 26.4945C6.07031 24.2192 7.92645 22.3633 10.2015 22.3633H37.7822C38.0616 22.3633 38.2811 22.5829 38.2811 22.8623C38.2811 23.1417 38.0616 23.3612 37.7822 23.3612C36.6346 23.3612 35.6666 24.7983 35.6666 26.4944C35.6666 28.1908 36.6345 29.6276 37.7822 29.6276C38.0616 29.6276 38.2811 29.8472 38.2811 30.1266C38.2811 30.406 38.0515 30.6255 37.7721 30.6255L37.7727 30.6256Z" fill="#D3302F"/>
<path fill-rule="evenodd" clip-rule="evenodd" d="M36.8715 22.9098L36.6419 23.1704C36.8086 23.06 36.9875 22.9712 37.1772 22.9098H36.8715ZM36.6417 29.8181L36.8715 30.0788H37.1775C36.9876 30.0174 36.8085 29.9285 36.6417 29.8181ZM37.7706 31.1721V31.1722H32.4918C31.9105 31.1722 31.4461 30.7078 31.4461 30.1265C31.4461 29.5452 31.9105 29.0808 32.4918 29.0808H34.7169C34.329 28.3341 34.1107 27.4435 34.1107 26.4943C34.1107 25.5451 34.3291 24.6546 34.7169 23.9079H10.1994C8.77516 23.9079 7.61292 25.0701 7.61292 26.4943C7.61292 27.9186 8.77516 29.0808 10.1994 29.0808C10.7807 29.0808 11.2451 29.5452 11.2451 30.1265C11.2451 30.7078 10.7807 31.1722 10.1994 31.1722C7.62214 31.1722 5.52148 29.0713 5.52148 26.4943C5.52148 23.9171 7.62242 21.8164 10.1994 21.8164H37.7801C38.3614 21.8164 38.8258 22.2808 38.8258 22.8621C38.8258 23.4434 38.3614 23.9078 37.7801 23.9078C37.4492 23.9078 37.0688 24.1177 36.7452 24.5974C36.4263 25.0701 36.2112 25.7447 36.2112 26.4943C36.2112 27.244 36.4263 27.9186 36.7451 28.3912C37.0687 28.8708 37.4491 29.0807 37.7801 29.0807C38.3614 29.0807 38.8258 29.5451 38.8258 30.1264C38.8258 30.7216 38.3374 31.1718 37.7706 31.1721ZM37.77 30.0788V30.0787C37.7694 30.0787 37.7688 30.0787 37.7681 30.0788H37.77Z" fill="#D3302F"/>
<path d="M26.5057 23.3711C26.2263 23.3711 26.0067 23.1515 26.0067 22.8721C26.0067 18.1324 27.284 16.1566 28.4016 14.4101C29.2197 13.1428 29.9282 12.0453 29.9282 9.99961C29.9282 5.71874 26.4458 2.24638 22.175 2.24638C17.9042 2.24638 14.4218 5.72884 14.4218 9.99961C14.4218 12.0553 15.1303 13.1428 15.9484 14.4101C17.076 16.1564 18.3433 18.1322 18.3433 22.8721C18.3433 23.1515 18.1238 23.3711 17.8444 23.3711C17.565 23.3711 17.3454 23.1515 17.3454 22.8721C17.3454 18.4215 16.1579 16.5757 15.1102 14.9491C14.242 13.6119 13.4238 12.3346 13.4238 9.98975C13.4238 5.16016 17.3554 1.23828 22.1753 1.23828C26.9952 1.23828 30.9268 5.16987 30.9268 9.98975C30.9268 12.3349 30.1086 13.6022 29.2404 14.9491C28.1927 16.5756 27.0052 18.4218 27.0052 22.8721C27.0049 23.1418 26.7856 23.3711 26.5062 23.3711H26.5057Z" fill="#D3302F"/>
<path fill-rule="evenodd" clip-rule="evenodd" d="M12.877 9.9896C12.877 4.85767 17.0537 0.691406 22.1751 0.691406C27.297 0.691406 31.4733 4.86777 31.4733 9.9896C31.4733 12.4939 30.5839 13.8737 29.707 15.2339L29.6999 15.245C29.6998 15.245 29.6998 15.2451 29.6997 15.2451C29.1766 16.0573 28.6502 16.8779 28.2457 18.0323C27.8417 19.1855 27.5518 20.697 27.5518 22.872V22.8726C27.5511 23.4362 27.0949 23.9177 26.5061 23.9177H26.5055C25.9242 23.9177 25.4598 23.4533 25.4598 22.872C25.4598 20.4514 25.7863 18.7097 26.2692 17.3371C26.7454 15.9834 27.3666 15.0127 27.9201 14.1479L27.9409 14.1153L27.9421 14.1135C28.7507 12.8609 29.3814 11.8775 29.3814 9.99946C29.3814 6.02099 26.1441 2.79294 22.1749 2.79294C18.206 2.79294 14.9683 6.03063 14.9683 9.99946C14.9683 11.884 15.5965 12.857 16.4034 14.107L16.4076 14.1134C16.4076 14.1134 16.4076 14.1135 16.4076 14.1135C16.9723 14.988 17.6033 15.9659 18.0845 17.3373C18.5661 18.7101 18.8899 20.4518 18.8899 22.872C18.8899 23.4533 18.4256 23.9177 17.8442 23.9177C17.2629 23.9177 16.7985 23.4533 16.7985 22.872C16.7985 20.6968 16.5086 19.1854 16.1046 18.0322C15.7003 16.8782 15.174 16.0578 14.651 15.2458C13.7704 13.8896 12.877 12.4996 12.877 9.9896Z" fill="#D3302F"/>
<path d="M24.6192 23.3711C24.3398 23.3711 24.1202 23.1515 24.1202 22.8721L24.1205 10.1699C24.1205 9.89047 24.3401 9.6709 24.6195 9.6709C24.8989 9.6709 25.1185 9.89047 25.1185 10.1699V22.8729C25.1181 23.1423 24.8986 23.3715 24.6192 23.3715V23.3711ZM19.7197 23.3711C19.4403 23.3711 19.2207 23.1515 19.2207 22.8721V10.1699C19.2207 9.89047 19.4403 9.6709 19.7197 9.6709C19.9991 9.6709 20.2186 9.89047 20.2186 10.1699V22.8729C20.2186 23.1423 19.9991 23.3715 19.7197 23.3715V23.3711Z" fill="#D3302F"/>
<path d="M25.8782 10.6682H18.4641C18.1847 10.6682 17.9652 10.4486 17.9652 10.1692L17.9648 7.95405C17.9648 7.67465 18.1844 7.45508 18.4638 7.45508H25.8779C26.1573 7.45508 26.3768 7.67465 26.3768 7.95405V10.1692C26.3768 10.4389 26.1576 10.6682 25.8782 10.6682V10.6682ZM18.9628 9.67056H25.3793V8.45302H18.9628V9.67056Z" fill="#D3302F"/>
<path fill-rule="evenodd" clip-rule="evenodd" d="M17.418 7.9539C17.418 7.37255 17.8823 6.9082 18.4637 6.9082H25.8777C26.4591 6.9082 26.9234 7.37255 26.9234 7.9539V10.169C26.9234 10.7333 26.4667 11.2147 25.878 11.2147H18.464C17.8827 11.2147 17.4183 10.7504 17.4183 10.1691C17.4183 10.1691 17.4183 10.1691 17.4183 10.1691L17.418 7.9539ZM19.5094 8.99959V9.12369H24.8324V8.99959H19.5094Z" fill="#D3302F"/>
</svg>
