<svg width="47" height="45" viewBox="0 0 47 45" fill="none" xmlns="http://www.w3.org/2000/svg">
<path d="M8.79793 23.6509H7.34756C6.57835 23.6509 5.8405 23.9605 5.29632 24.5115C4.75243 25.0627 4.44682 25.8102 4.44682 26.5893V39.8122H2.27126C1.87079 39.8122 1.54607 39.4833 1.54607 39.0776V37.6084C1.54607 37.2027 1.22136 36.8738 0.820889 36.8738C0.420421 36.8738 0.0957031 37.2027 0.0957031 37.6084V39.0776C0.0957031 39.662 0.324912 40.2228 0.732831 40.636C1.14075 41.0491 1.69439 41.2814 2.27122 41.2814H4.44678C4.44678 42.0606 4.75239 42.808 5.29628 43.3593C5.84049 43.9102 6.57832 44.2198 7.34752 44.2198H8.79789C9.5671 44.2198 10.305 43.9102 10.8491 43.3593C11.393 42.808 11.6986 42.0606 11.6986 41.2814V26.5893C11.6986 25.8101 11.393 25.0627 10.8491 24.5114C10.3049 23.9605 9.56709 23.6509 8.79789 23.6509L8.79793 23.6509ZM10.2483 41.2814C10.2483 41.671 10.0955 42.0449 9.82355 42.3204C9.55161 42.5958 9.18254 42.7506 8.79793 42.7506H7.34756C6.96296 42.7506 6.59388 42.5958 6.32194 42.3204C6.05 42.0449 5.89719 41.671 5.89719 41.2814V26.5893C5.89719 26.1997 6.05 25.8259 6.32194 25.5504C6.59388 25.2749 6.96296 25.1201 7.34756 25.1201H8.79793C9.18254 25.1201 9.55161 25.2749 9.82355 25.5504C10.0955 25.8259 10.2483 26.1997 10.2483 26.5893V41.2814Z" fill="#D3302F"/>
<path d="M44.3317 26.5893H42.1561C42.1561 25.8101 41.8505 25.0627 41.3066 24.5114C40.7624 23.9605 40.0246 23.6509 39.2554 23.6509H37.805C37.0358 23.6509 36.298 23.9605 35.7538 24.5114C35.2099 25.0627 34.9043 25.8101 34.9043 26.5893V41.2814C34.9043 42.0606 35.2099 42.808 35.7538 43.3592C36.298 43.9102 37.0358 44.2198 37.805 44.2198H39.2554C40.0246 44.2198 40.7625 43.9102 41.3066 43.3592C41.8505 42.808 42.1561 42.0605 42.1561 41.2814V28.0585H44.3317C44.524 28.0585 44.7085 28.1359 44.8445 28.2736C44.9805 28.4114 45.0569 28.5983 45.0569 28.7931V30.2623C45.0569 30.668 45.3816 30.9969 45.7821 30.9969C46.1825 30.9969 46.5073 30.668 46.5073 30.2623V28.7931C46.5073 28.2087 46.2781 27.6479 45.8701 27.2347C45.4622 26.8216 44.9086 26.5893 44.3317 26.5893L44.3317 26.5893ZM40.7058 41.2814C40.7058 41.671 40.553 42.0448 40.281 42.3203C40.0091 42.5958 39.64 42.7506 39.2554 42.7506H37.805C37.4204 42.7506 37.0514 42.5958 36.7794 42.3203C36.5075 42.0448 36.3547 41.671 36.3547 41.2814V26.5893C36.3547 26.1997 36.5075 25.8258 36.7794 25.5504C37.0514 25.2749 37.4204 25.1201 37.805 25.1201H39.2554C39.64 25.1201 40.0091 25.2749 40.281 25.5504C40.553 25.8258 40.7058 26.1997 40.7058 26.5893V41.2814Z" fill="#D3302F"/>
<path d="M10.7271 11.1627C9.93844 11.166 9.18347 10.8406 8.63863 10.2628C8.10574 9.701 7.81438 8.94838 7.82862 8.16945C7.84319 7.39058 8.16175 6.64912 8.71468 6.10794C12.6313 2.2818 17.8603 0.143555 23.3013 0.143555C28.7422 0.143555 33.9718 2.2818 37.8878 6.10794C38.4521 6.64611 38.7801 7.39052 38.7992 8.17533C38.818 8.96011 38.5263 9.71967 37.9885 10.2854C37.4511 10.8507 36.7126 11.1748 35.9376 11.1853C35.1629 11.1954 34.4161 10.8914 33.864 10.3405C31.0283 7.56901 27.2419 6.02046 23.3012 6.02046C19.3605 6.02046 15.5744 7.56901 12.7383 10.3405C12.1986 10.8688 11.4767 11.1637 10.7259 11.1627H10.7271ZM23.3022 1.61284C18.2344 1.60465 13.3626 3.59661 9.72093 7.16628C9.44414 7.43684 9.28485 7.80774 9.27773 8.19732C9.27093 8.58692 9.41694 8.96341 9.68402 9.24382C9.95499 9.51634 10.3195 9.67245 10.7015 9.67966C11.0835 9.68688 11.4532 9.54422 11.7343 9.28219C14.84 6.24798 18.9861 4.55285 23.3008 4.55285C27.6153 4.55285 31.7618 6.24798 34.8673 9.28219C35.1483 9.54422 35.518 9.68622 35.9 9.67933C36.282 9.67212 36.6466 9.51602 36.9178 9.24382C37.1849 8.96309 37.3306 8.58661 37.3235 8.19699C37.3164 7.80739 37.1564 7.4368 36.8796 7.16628C33.2388 3.5972 28.368 1.60529 23.3017 1.61284H23.3022Z" fill="#D3302F"/>
<path d="M0.820888 36.1392C0.42042 36.1392 0.0957031 35.8102 0.0957031 35.4046V28.7931C0.0957031 28.2087 0.324911 27.6479 0.73283 27.2348C1.14075 26.8216 1.69438 26.5894 2.27122 26.5894H2.9964C3.39687 26.5894 3.72159 26.9183 3.72159 27.324C3.72159 27.7296 3.39687 28.0586 2.9964 28.0586H2.27122C1.87075 28.0586 1.54603 28.3875 1.54603 28.7932V35.4046C1.54603 35.5994 1.46963 35.7863 1.33366 35.9241C1.19768 36.0618 1.01315 36.1392 0.820847 36.1392L0.820888 36.1392Z" fill="#D3302F"/>
<path d="M44.3312 41.2813H43.606C43.2056 41.2813 42.8809 40.9523 42.8809 40.5467C42.8809 40.141 43.2056 39.8121 43.606 39.8121H44.3312C44.5235 39.8121 44.7081 39.7347 44.844 39.5969C44.98 39.4592 45.0564 39.2723 45.0564 39.0775V32.466C45.0564 32.0604 45.3811 31.7314 45.7816 31.7314C46.1821 31.7314 46.5068 32.0604 46.5068 32.466V39.0775C46.5068 39.6619 46.2776 40.2227 45.8697 40.6358C45.4617 41.049 44.9081 41.2812 44.3313 41.2812L44.3312 41.2813Z" fill="#D3302F"/>
<path d="M2.99667 25.8549C2.5962 25.8549 2.27148 25.526 2.27148 25.1203V22.1819C2.27148 21.8654 2.47124 21.5847 2.76746 21.4847L4.4542 20.9154C4.54679 17.4844 5.553 14.1422 7.36663 11.243C7.58127 10.9003 8.02933 10.7983 8.36796 11.0157C8.70627 11.2328 8.80664 11.687 8.59231 12.0297C6.82982 14.8465 5.89521 18.1128 5.89744 21.4477C5.89744 21.7642 5.69769 22.0449 5.40147 22.1449L3.72185 22.712V25.1207C3.72185 25.3155 3.64545 25.5024 3.50948 25.6402C3.37351 25.7779 3.18897 25.8553 2.99667 25.8553V25.8549Z" fill="#D3302F"/>
<path d="M43.6068 25.8548C43.2063 25.8548 42.8816 25.5259 42.8816 25.1202V22.7115L41.202 22.1445C40.9058 22.0444 40.706 21.7637 40.706 21.4472C40.7083 18.1126 39.7736 14.8463 38.0111 12.0292C37.7968 11.6865 37.8972 11.2323 38.2355 11.0152C38.5741 10.7978 39.0222 10.8998 39.2368 11.2425C41.0501 14.1418 42.0564 17.484 42.1493 20.9149L43.836 21.4842C44.1322 21.5842 44.332 21.8649 44.332 22.1814V25.1198C44.332 25.3146 44.2556 25.5016 44.1196 25.6393C43.9836 25.777 43.7991 25.8544 43.6068 25.8544V25.8548Z" fill="#D3302F"/>
<path d="M33.4538 31.7316C33.4518 30.8157 33.1692 29.923 32.6447 29.1772C32.1203 28.4311 31.3798 27.8683 30.5262 27.5669C30.4054 26.4906 29.8981 25.4966 29.1008 24.7741C28.3034 24.052 27.2716 23.6522 26.2019 23.6509C25.9093 23.6522 25.6179 23.6843 25.3317 23.7463C25.1394 23.7814 24.9691 23.8932 24.8594 24.0572C24.7499 24.2208 24.7101 24.4225 24.749 24.6164C24.7882 24.8102 24.9028 24.98 25.0672 25.0873C25.2314 25.1942 25.4314 25.2296 25.6218 25.1854C25.8125 25.1437 26.0067 25.1217 26.2019 25.1201C26.9653 25.1211 27.6973 25.4264 28.2402 25.9701C28.7828 26.5135 29.0927 27.2518 29.1027 28.0248C29.0985 28.0605 29.0959 28.0962 29.0956 28.132C29.0952 28.4813 29.338 28.782 29.6757 28.8518C30.3316 28.9869 30.9214 29.3474 31.3455 29.8721C31.7696 30.3964 32.0021 31.0533 32.0034 31.7315C32.0018 32.0683 31.9412 32.4021 31.8243 32.7173C31.2876 32.2713 30.6524 31.9636 29.9728 31.8203C29.5805 31.7393 29.1972 31.9958 29.1172 32.3932C29.0369 32.791 29.2904 33.179 29.6828 33.26C30.6896 33.4784 31.5071 34.2212 31.8302 35.2116C32.1529 36.2023 31.9334 37.2921 31.2529 38.0749C30.5728 38.858 29.5332 39.2168 28.5225 39.018C28.1301 38.9367 27.7468 39.1931 27.6669 39.5909C27.5866 39.9884 27.8401 40.3767 28.2325 40.4577C28.4853 40.5085 28.742 40.5367 28.9997 40.5413C28.8213 41.2618 28.3785 41.8865 27.7614 42.288C27.1444 42.6891 26.3994 42.837 25.6785 42.7012C24.9578 42.5654 24.3149 42.1565 23.8813 41.5573C23.7363 41.3648 23.5071 41.2572 23.2682 41.2694C23.0296 41.2815 22.812 41.412 22.687 41.6183C22.1448 42.3437 21.2985 42.7697 20.4004 42.7701C19.6367 42.7704 18.9041 42.4654 18.3609 41.9217C17.8179 41.378 17.5085 40.6391 17.4997 39.8658C17.5039 39.8304 17.5065 39.7947 17.5068 39.7593C17.5074 39.4097 17.2646 39.1083 16.9267 39.0384C16.2707 38.9036 15.6809 38.5432 15.2568 38.0185C14.8327 37.4939 14.6003 36.837 14.599 36.1588C14.6006 35.8223 14.6611 35.4885 14.778 35.173C15.3148 35.619 15.95 35.9269 16.6295 36.0709C16.6774 36.0804 16.726 36.0853 16.7745 36.0853C17.1472 36.086 17.4593 35.8003 17.4968 35.4248C17.5344 35.0493 17.2848 34.706 16.9196 34.6309C15.971 34.4357 15.1814 33.7746 14.8136 32.8678C14.4459 31.9607 14.5488 30.928 15.0882 30.114C15.6275 29.2997 16.5321 28.8117 17.4998 28.8127C17.6947 28.8134 17.8889 28.8334 18.0799 28.8724C18.4723 28.9534 18.8556 28.697 18.9356 28.2995C19.0158 27.9017 18.7624 27.5137 18.37 27.4327C18.1171 27.3816 17.8604 27.3537 17.6027 27.3488C17.762 26.7188 18.1233 26.1603 18.6293 25.7605C19.1357 25.3611 19.7585 25.1427 20.4005 25.1397C21.2371 25.1394 22.0319 25.5097 22.5761 26.1527V30.282C22.578 30.663 22.4333 31.0297 22.1724 31.3038C21.9114 31.5783 21.5553 31.7384 21.1795 31.7505C20.8036 31.7626 20.4381 31.6256 20.1607 31.3685C19.8618 31.1067 19.4112 31.1353 19.1471 31.4327C18.8829 31.7299 18.902 32.1867 19.1901 32.4602C19.6417 32.8806 20.2154 33.142 20.8256 33.2056C21.4356 33.2689 22.0497 33.1308 22.5761 32.8121V37.6279H21.1257C20.7253 37.6279 20.4006 37.9569 20.4006 38.3625C20.4006 38.7685 20.7253 39.0971 21.1257 39.0971H22.5761V39.8318C22.5761 40.2377 22.9008 40.5664 23.3013 40.5664C23.7018 40.5664 24.0265 40.2377 24.0265 39.8318V37.6279C24.0242 37.2472 24.1689 36.8802 24.4299 36.606C24.6908 36.3316 25.0472 36.1712 25.4231 36.1594C25.7993 36.1476 26.1648 36.285 26.4419 36.5424C26.7398 36.8136 27.1985 36.7894 27.4662 36.4877C27.7343 36.1859 27.71 35.7216 27.4125 35.4501C26.9608 35.0296 26.3872 34.7683 25.7769 34.7046C25.167 34.6413 24.5528 34.7794 24.0265 35.0982V28.8127H25.4768C25.8773 28.8127 26.202 28.4841 26.202 28.0781C26.202 27.6725 25.8773 27.3435 25.4768 27.3435H24.0265V25.8743C24.0268 25.6654 23.9387 25.4667 23.7843 25.328C22.9668 24.2795 21.7195 23.6685 20.4005 23.6705C19.3306 23.6722 18.2985 24.0726 17.5011 24.7954C16.7041 25.5185 16.1974 26.5135 16.0776 27.5905C14.8461 28.0175 13.8691 28.9829 13.4174 30.2199C12.9658 31.4566 13.0875 32.8337 13.7482 33.9697C13.3594 34.6321 13.1522 35.3881 13.1487 36.1587C13.1506 37.0747 13.4336 37.9673 13.9577 38.7138C14.4822 39.4599 15.2226 40.0226 16.0762 40.324C16.197 41.4007 16.7046 42.3944 17.502 43.1165C18.2994 43.8384 19.3308 44.2381 20.4005 44.2394C21.4786 44.2427 22.5181 43.8341 23.3123 43.0952C24.1035 43.8216 25.1339 44.2227 26.202 44.2198C27.2719 44.2181 28.304 43.8177 29.1014 43.095C29.8985 42.3722 30.4051 41.3772 30.5249 40.2999C31.7564 39.8729 32.7335 38.9074 33.1851 37.6707C33.6368 36.4337 33.515 35.057 32.8543 33.9206C33.2431 33.2582 33.4503 32.5022 33.4539 31.7316L33.4538 31.7316Z" fill="#D3302F"/>
</svg>
