<svg width="43" height="45" viewBox="0 0 43 45" fill="none" xmlns="http://www.w3.org/2000/svg">
<path d="M3.57655 26.6273C2.2636 22.8149 2.20339 18.6826 3.40429 14.8333C4.60546 10.9844 7.00513 7.62002 10.2531 5.23089C13.5011 2.84167 17.4277 1.55333 21.4599 1.55301C25.4918 1.55301 29.4187 2.84144 32.6667 5.23026C35.9146 7.61908 38.3146 10.9835 39.5161 14.8327C40.7173 18.6819 40.6572 22.8143 39.3445 26.6267C39.8152 26.6024 40.2862 26.6666 40.7333 26.8161C42.0751 22.7378 42.0886 18.3393 40.772 14.2526C39.4553 10.1661 36.8764 6.60273 33.4061 4.07477C29.9358 1.54682 25.7531 0.185059 21.4596 0.185059C17.1664 0.185059 12.9836 1.54714 9.51316 4.07477C6.04312 6.60273 3.46423 10.1661 2.14759 14.2526C0.830952 18.3388 0.844471 22.7381 2.18628 26.8161C2.63366 26.6669 3.10502 26.603 3.57603 26.6273L3.57655 26.6273Z" fill="#D3302F"/>
<path d="M14.4941 9.79417C14.2325 9.41374 14.0179 9.00348 13.8545 8.57178C11.8734 9.81225 10.239 11.5345 9.10354 13.5777C7.96808 15.6211 7.36872 17.9185 7.36133 20.2561C7.36102 22.4703 7.89836 24.6512 8.92636 26.6124L10.2737 26.2129L10.274 26.2126C9.26601 24.389 8.73692 22.3397 8.73692 20.2561C8.75073 16.0163 10.9198 12.0748 14.4941 9.79449L14.4941 9.79417Z" fill="#D3302F"/>
<path d="M34.0016 26.6139C35.0303 24.6528 35.5655 22.4706 35.5605 20.2561C35.5532 17.9185 34.9538 15.6211 33.8183 13.5777C32.6829 11.5346 31.0484 9.81233 29.0673 8.57178C28.904 9.00349 28.6893 9.41372 28.4277 9.79417C32.0022 12.0747 34.1711 16.0163 34.185 20.2558C34.1896 22.3398 33.6624 24.3906 32.6537 26.2141L34.0016 26.6139Z" fill="#D3302F"/>
<path d="M27.9959 6.92689C28.0009 6.32661 27.8225 5.73956 27.4841 5.24364C27.1457 4.74805 26.6639 4.36758 26.1033 4.15362C25.6529 3.97307 25.1616 3.9178 24.6823 3.99395C24.203 4.07041 23.7532 4.2749 23.3806 4.58657C23.0662 4.20122 22.7079 3.85425 22.313 3.55212C22.0662 3.37126 21.768 3.27393 21.4619 3.27393C21.1558 3.27393 20.8576 3.37126 20.6107 3.55212C20.2159 3.85426 19.8576 4.20123 19.5431 4.58657C19.1707 4.27522 18.7208 4.07072 18.2415 3.99457C17.7622 3.91843 17.2709 3.97339 16.8205 4.15362C16.2598 4.36764 15.778 4.74808 15.4397 5.24365C15.1013 5.73954 14.9229 6.32691 14.9278 6.9269C14.9278 8.46741 16.0568 9.76283 17.2301 10.6296C18.473 11.5477 19.9969 12.2241 21.5589 12.2094C23.1491 12.1944 24.7526 11.3982 25.9713 10.4156C27.0263 9.56482 27.996 8.34675 27.996 6.9269L27.9959 6.92689ZM16.3034 6.92689C16.2969 6.60479 16.3906 6.28884 16.5714 6.02199C16.7523 5.75547 17.0111 5.55128 17.3127 5.43797C17.5583 5.33327 17.83 5.30655 18.091 5.36182C18.352 5.41679 18.59 5.55097 18.7721 5.74595C18.7816 5.75669 18.793 5.76437 18.8031 5.77419C18.1564 7.16913 18.2323 8.79194 19.0054 10.1205C17.5896 9.37255 16.3034 8.15295 16.3034 6.92687L16.3034 6.92689ZM21.4901 10.8351C21.4729 10.84 21.4548 10.8403 21.4376 10.8363C20.3445 9.99649 19.7424 8.89884 19.7424 7.74397C19.7424 6.58611 20.3476 5.48563 21.4336 4.65289C21.4465 4.64767 21.4776 4.64767 21.4773 4.6449C22.5762 5.48559 23.1814 6.58607 23.1814 7.744C23.1814 8.90194 22.5762 10.0023 21.4901 10.8351L21.4901 10.8351ZM23.918 10.1206H23.9183C24.6914 8.79198 24.7673 7.16917 24.1206 5.77424C24.1308 5.76441 24.1421 5.75674 24.1516 5.74599C24.3337 5.55101 24.5714 5.41652 24.8327 5.36156C25.0937 5.30629 25.3657 5.33301 25.6111 5.43802C25.9126 5.55132 26.1714 5.75551 26.3523 6.02203C26.5331 6.28886 26.6268 6.60482 26.6203 6.92694C26.6203 8.15303 25.3341 9.37259 23.9183 10.1206L23.918 10.1206Z" fill="#D3302F"/>
<path d="M41.243 28.6849C40.7511 28.2123 40.086 27.9645 39.4049 28.0005L35.4424 28.1961V28.1958C34.9057 28.2231 34.3677 28.1583 33.8528 28.0045L29.3873 26.6801C29.1994 26.6212 29.0145 26.5527 28.8337 26.475C28.0298 26.1391 27.1888 25.9005 26.3281 25.7642C26.014 26.2358 25.6333 26.6596 25.1982 27.0225C26.2664 27.0876 27.3159 27.3314 28.3034 27.7444C28.5297 27.8414 28.7609 27.9261 28.9958 27.9986L33.4615 29.3233C34.126 29.5198 34.8184 29.603 35.5102 29.5701C35.5102 29.5701 39.4717 29.3745 39.4773 29.3742H39.4776C39.9167 29.4052 40.3125 29.6509 40.5354 30.0304C40.7586 30.4099 40.7804 30.8751 40.5934 31.274C40.4067 31.6728 40.0358 31.9541 39.6013 32.0256L35.2568 32.2409L35.2565 32.2412C34.8033 32.2642 34.3489 32.2218 33.9076 32.1147L28.4713 30.8072C28.2665 30.7578 28.0503 30.8054 27.8848 30.9356C27.7193 31.0661 27.6226 31.2653 27.6226 31.476V42.8211H15.2996V31.476C15.2996 31.2653 15.2029 31.0661 15.0374 30.9356C14.8719 30.8054 14.6557 30.7578 14.4509 30.8072L9.0149 32.1147C8.57335 32.2206 8.11919 32.2633 7.66603 32.2415L3.32583 32.0259V32.0256C3.00496 31.9888 2.7105 31.8312 2.50173 31.585C2.29324 31.3384 2.18608 31.0219 2.20266 30.6994C2.20266 30.0417 2.73601 29.3256 3.44957 29.3745L7.41208 29.5701C8.10387 29.603 8.79624 29.5195 9.46069 29.3229L13.9267 27.9986C14.1616 27.9261 14.3928 27.8411 14.6188 27.7444C15.6063 27.3314 16.6558 27.0876 17.7241 27.0225C17.289 26.6595 16.9082 26.2358 16.5941 25.7642C15.7338 25.9005 14.8925 26.1391 14.0886 26.475C13.9077 26.5527 13.7232 26.6211 13.5356 26.6798L9.06951 28.0041C8.55428 28.1577 8.01691 28.2225 7.47987 28.1957L3.52225 28.0008C2.02536 27.9268 0.826943 29.2483 0.826943 30.701C0.810669 31.3753 1.05263 32.0302 1.50369 32.532C1.95475 33.0337 2.58051 33.3441 3.25266 33.3994L7.59774 33.6152H7.59804C8.18206 33.6435 8.76761 33.5885 9.33624 33.4522L13.9239 32.349V43.5094C13.9239 43.8892 14.2316 44.1972 14.6117 44.1972H28.3103H28.31C28.6901 44.1972 28.9978 43.8892 28.9978 43.5094V32.349L33.5854 33.4522H33.5857C34.1544 33.5888 34.74 33.6438 35.3239 33.6149L39.6736 33.3994H39.6739C40.3455 33.3429 40.9703 33.0318 41.4202 32.5301C41.8703 32.0281 42.1116 31.3734 42.0948 30.6994C42.0981 29.9395 41.7902 29.2114 41.2424 28.6849L41.243 28.6849Z" fill="#D3302F"/>
<path d="M16.9902 22.5322C16.9902 23.7181 17.4613 24.8551 18.2998 25.6933C19.1381 26.5319 20.2751 27.0029 21.4609 27.0029C22.6468 27.0029 23.7838 26.5319 24.622 25.6933C25.4606 24.8551 25.9316 23.7181 25.9316 22.5322C25.9316 21.3464 25.4606 20.2093 24.622 19.3711C23.7838 18.5325 22.6468 18.0615 21.4609 18.0615C20.2757 18.0628 19.1393 18.5344 18.3011 19.3723C17.4631 20.2106 16.9915 21.347 16.9902 22.5322ZM24.556 22.5322C24.556 23.3529 24.2299 24.1402 23.6496 24.7209C23.069 25.3012 22.2817 25.6273 21.4609 25.6273C20.6401 25.6273 19.8529 25.3012 19.2722 24.7209C18.6919 24.1403 18.3658 23.353 18.3658 22.5322C18.3658 21.7114 18.6919 20.9242 19.2722 20.3435C19.8529 19.7632 20.6401 19.4371 21.4609 19.4371C22.2814 19.438 23.0683 19.7644 23.6484 20.3448C24.2287 20.9248 24.5551 21.7118 24.556 22.5322Z" fill="#D3302F"/>
</svg>
