<svg width="46" height="46" viewBox="0 0 46 46" fill="none" xmlns="http://www.w3.org/2000/svg">
<path d="M7.10084 7.27872C2.88083 11.4975 0.509059 17.22 0.507813 23.1875C0.507001 29.1548 2.87637 34.8781 7.09513 39.0984C11.3139 43.3184 17.0365 45.6902 23.0039 45.6914C28.9712 45.6922 34.6945 43.3228 38.9148 39.1041C43.1348 34.8853 45.5066 29.1628 45.5078 23.1953C45.5086 17.228 43.1393 11.5047 38.9205 7.28443C34.7017 3.06443 28.9792 0.692653 23.0117 0.691406C17.0445 0.690595 11.3212 3.05996 7.10084 7.27872V7.27872ZM40.7127 20.9745C36.7715 20.4956 33.1063 18.7021 30.3105 15.8835C27.4951 13.0892 25.7021 9.42929 25.2195 5.49168C29.1579 5.97748 32.8211 7.76444 35.628 10.5693C38.4349 13.3741 40.2246 17.036 40.7133 20.9736L40.7127 20.9745ZM5.30341 25.4023C9.23687 25.8978 12.8941 27.6885 15.6984 30.4912C18.5023 33.2943 20.2942 36.9507 20.7914 40.8851C16.8542 40.3981 13.1922 38.6103 10.3861 35.8059C7.58043 33.001 5.79142 29.3395 5.3032 25.4026L5.30341 25.4023ZM35.628 35.8107C32.8853 38.56 29.3166 40.3339 25.4692 40.8607C24.9676 35.6934 22.6774 30.8638 18.9935 27.2054C15.3335 23.5207 10.5015 21.2305 5.33198 20.7297C5.86608 16.8843 7.6409 13.3181 10.3872 10.5741C13.1336 7.82979 16.7011 6.0574 20.5468 5.52659C21.0493 10.6919 23.3395 15.5199 27.0226 19.1766C30.6813 22.8638 35.5138 25.1565 40.6841 25.6581C40.1573 29.5051 38.3804 33.0725 35.628 35.8113V35.8107Z" fill="#D3302F"/>
</svg>
