<svg width="43" height="46" viewBox="0 0 43 46" fill="none" xmlns="http://www.w3.org/2000/svg">
<path d="M13.4014 29.944C10.8532 29.944 8.61087 29.6042 6.67429 28.9247C4.73771 28.2112 3.22582 27.192 2.13862 25.8669C1.05141 24.5079 0.507812 22.8601 0.507812 20.9236C0.507812 19.0549 1.05141 17.4411 2.13862 16.0821C3.25979 14.6891 5.0265 13.6019 7.43873 12.8205C9.88494 12.0391 13.0616 11.6484 16.9687 11.6484H25.4795C28.877 11.6484 31.8838 12.0561 34.4999 12.8715C37.116 13.6869 39.1715 15.0289 40.6664 16.8975C42.1952 18.7322 42.9597 21.2293 42.9597 24.389C42.9597 26.6993 42.467 28.6529 41.4818 30.2497C40.5305 31.8805 39.1545 33.2905 37.3538 34.4796C36.2326 35.2271 34.8736 35.8556 33.2768 36.3652C31.7139 36.9088 29.8623 37.2996 27.7219 37.5374C25.6154 37.8092 23.1692 37.9451 20.3832 37.9451H16.4082C14.3357 37.9451 12.8578 38.03 11.9744 38.1999C11.125 38.4037 10.4285 38.6925 9.88494 39.0663C9.34133 39.474 8.91665 39.9836 8.61087 40.5951C8.30509 41.2407 8.15221 42.107 8.15221 43.1942C8.15221 43.568 8.16919 43.9247 8.20317 44.2645C8.23714 44.6042 8.27112 44.9609 8.30509 45.3347L0.864551 45.6914C0.762626 44.9779 0.677688 44.2645 0.609738 43.551C0.575763 42.8715 0.558775 42.124 0.558775 41.3086C0.558775 39.7797 0.864551 38.4377 1.4761 37.2826C2.08765 36.1614 2.90306 35.2441 3.92231 34.5306C4.60181 34.0549 5.36625 33.6642 6.21563 33.3585C7.065 33.0527 8.11823 32.8318 9.37531 32.6959C10.6324 32.56 12.1952 32.4921 14.0639 32.4921H18.6505C21.6063 32.4921 24.0356 32.3732 25.9382 32.1353C27.8408 31.9315 29.3696 31.5917 30.5248 31.1161C31.7139 30.6404 32.6822 30.0119 33.4297 29.2305C34.1092 28.551 34.6188 27.7695 34.9585 26.8862C35.2983 25.9689 35.4682 24.9326 35.4682 23.7775C35.4682 22.2826 35.1454 21.0765 34.4999 20.1591C33.8883 19.2418 33.0559 18.5453 32.0027 18.0697C30.9835 17.56 29.8453 17.2203 28.5882 17.0504C27.3651 16.8805 26.142 16.7956 24.9189 16.7956H16.0005C14.8113 16.7956 13.6732 16.8635 12.586 16.9994C11.5327 17.1014 10.6324 17.3392 9.88494 17.7129C9.23941 18.0527 8.76376 18.4774 8.45798 18.987C8.15221 19.4966 7.99932 20.0912 7.99932 20.7707C7.99932 22.0278 8.52593 22.9621 9.57916 23.5736C10.6664 24.1852 12.1103 24.491 13.911 24.491C15.236 24.491 16.3572 24.2871 17.2745 23.8794C18.2258 23.4717 18.9563 22.7412 19.4659 21.688C19.9755 20.6008 20.2304 19.1059 20.2304 17.2033V6.14441H12.535V13.9417L5.706 14.7571V0.691406H37.2519V6.14441H27.6199V17.1014C27.6199 19.4796 27.3821 21.3652 26.9065 22.7582C26.4648 24.1172 25.8192 25.2724 24.9699 26.2237C23.7468 27.5827 22.1499 28.551 20.1794 29.1286C18.2088 29.6722 15.9495 29.944 13.4014 29.944Z" fill="#D3302F"/>
</svg>
