<svg width="40" height="46" viewBox="0 0 40 46" fill="none" xmlns="http://www.w3.org/2000/svg">
<path d="M30.1153 29.8553C28.6103 28.9236 26.9623 28.1354 25.2429 27.6341V25.4129C27.3207 25.9862 29.2556 26.7745 31.047 27.9211C32.1216 25.27 32.695 22.1885 32.695 18.8925C32.695 18.0328 32.6235 17.1726 32.5515 16.3129C33.1248 15.6681 33.4832 14.8799 33.4832 14.0196C33.4832 12.5866 32.6235 11.3685 31.4054 10.8666C29.3276 4.84761 24.9566 0.691406 19.9401 0.691406C14.9243 0.691406 10.5532 4.84748 8.47483 10.8666C7.25673 11.3685 6.39705 12.5865 6.39705 14.0196C6.39705 14.8794 6.75543 15.7395 7.32873 16.3129C7.25726 17.1726 7.18528 18.0328 7.18528 18.8925C7.18528 22.189 7.83007 25.27 8.83325 27.9211C10.6247 26.8465 12.5595 25.9863 14.6373 25.4129V27.6341C12.9174 28.1359 11.2694 28.9237 9.76491 29.8553C4.53412 33.2232 0.951295 39.0274 0.521484 45.6914H39.431C38.9296 39.0276 35.3468 33.1515 30.1155 29.8553H30.1153ZM16.7156 22.2599C17.7187 22.6183 18.7933 22.7617 19.8686 22.7617C21.0152 22.7617 22.0184 22.5468 23.0216 22.2599V28.5658H16.6442V22.2599H16.7156ZM11.9861 14.6644C11.7712 14.0196 11.6997 13.3028 11.6277 12.5866V12.3002C11.6277 11.8704 11.6992 11.512 11.6992 11.1536C11.6992 11.0102 11.7707 10.8672 11.7707 10.7237H27.8934C27.8934 10.8672 27.9649 11.0102 27.9649 11.1536C28.0363 11.512 28.0363 11.9419 28.0363 12.3002V12.5866C28.0363 13.3034 27.8929 14.0196 27.678 14.6644C27.5345 15.0943 27.3915 15.5961 27.1761 15.954C26.6028 17.1721 25.6711 18.1752 24.5965 18.9635C23.9517 19.3934 23.3069 19.7518 22.5901 20.0382C21.7304 20.3246 20.7987 20.54 19.7955 20.54C18.7923 20.54 17.8606 20.3251 17.0009 20.0382C16.2841 19.7518 15.5679 19.3934 14.9945 18.9635C13.9199 18.1753 13.0597 17.1721 12.4149 15.954C12.2729 15.5961 12.1295 15.1662 11.986 14.6644H11.9861ZM9.47839 12.7296C9.47839 13.5893 9.62184 14.4494 9.90825 15.2378H9.7648C9.04803 15.2378 8.47524 14.6645 8.47524 13.9482C8.40326 13.3749 8.9051 12.8016 9.4784 12.7296L9.47839 12.7296ZM31.3336 14.0196C31.3336 14.7364 30.7603 15.3092 30.0441 15.3092H29.9006C30.1155 14.5209 30.259 13.6612 30.3305 12.801C30.8318 12.8015 31.3336 13.3748 31.3336 14.0196L31.3336 14.0196Z" fill="#D3302F"/>
</svg>
