<svg width="81" height="46" viewBox="0 0 81 46" fill="none" xmlns="http://www.w3.org/2000/svg">
<path d="M39.3942 45.6914C37.6157 45.6914 36.0011 45.4574 34.5502 44.9894C33.1461 44.5214 31.8825 43.7725 30.7593 42.7429C29.636 41.7132 28.5596 40.356 27.5299 38.6711L28.8638 38.7413C27.6001 40.5198 26.2897 41.9239 24.9324 42.9535C23.622 43.9831 22.1477 44.6852 20.5096 45.0596C18.9184 45.4808 16.9995 45.6914 14.753 45.6914C11.9917 45.6914 9.67501 45.2234 7.80293 44.2873C5.97766 43.3045 4.5268 42.0175 3.45036 40.4262C2.37392 38.7881 1.60169 36.9395 1.13367 34.8802C0.66565 32.8209 0.431641 30.7148 0.431641 28.5619C0.431641 25.5198 0.829456 22.8521 1.62509 20.5588C2.46752 18.2187 3.63757 16.253 5.13523 14.6618C6.63289 13.0237 8.36456 11.8068 10.3302 11.0112C12.3427 10.1688 14.5424 9.74757 16.9293 9.74757C19.5502 9.74757 21.7265 10.2156 23.4582 11.1516C25.1898 12.0409 26.4769 13.2577 27.3193 14.8022C28.2086 16.3466 28.6532 18.0783 28.6532 19.9972C28.6532 22.2437 28.1852 24.1391 27.2491 25.6836C26.3131 27.1813 24.909 28.3279 23.0369 29.1235C21.1649 29.8724 18.8014 30.2468 15.9465 30.2468C14.3552 30.2468 12.8341 29.9894 11.3833 29.4746C9.97922 28.9597 8.73897 28.3279 7.66253 27.5791C6.58609 26.8302 5.69685 26.1516 4.99482 25.5432L7.59233 18.9441C8.15395 19.6462 8.80918 20.3482 9.55801 21.0502C10.3536 21.7522 11.2429 22.3373 12.2257 22.8053C13.2086 23.2265 14.2616 23.4371 15.3848 23.4371C16.7889 23.4371 17.9355 23.1797 18.8248 22.6649C19.7608 22.1033 20.2288 21.1906 20.2288 19.927C20.2288 19.1313 19.948 18.4059 19.3864 17.7507C18.8248 17.0487 18.0057 16.6976 16.9293 16.6976C15.7125 16.6976 14.5424 17.0253 13.4192 17.6805C12.3427 18.3357 11.4535 19.4824 10.7515 21.1204C10.0494 22.7117 9.69841 24.9348 9.69841 27.7897V28.7725C9.69841 30.6914 9.90902 32.2827 10.3302 33.5463C10.7983 34.81 11.5237 35.746 12.5065 36.3544C13.4894 36.9161 14.753 37.1969 16.2975 37.1969C18.1696 37.1969 19.597 36.8693 20.5798 36.214C21.6095 35.512 22.3349 34.6696 22.7561 33.6867C23.2242 32.6571 23.5284 31.6508 23.6688 30.668H32.7249C33.0057 32.4933 33.4504 33.8739 34.0588 34.81C34.714 35.746 35.4862 36.3778 36.3755 36.7054C37.3115 37.0331 38.271 37.1969 39.2538 37.1969C41.3131 37.1969 42.6937 36.6352 43.3958 35.512C44.1446 34.3888 44.519 33.0315 44.519 31.4402C44.519 29.2873 44.051 27.3217 43.1149 25.5432C42.1789 23.7647 40.9153 22.1501 39.324 20.6992C37.7327 19.2483 35.9543 17.9379 33.9886 16.7678L38.8326 10.5198C41.8279 12.1111 44.4722 13.8661 46.7655 15.785C49.1056 17.7039 50.9309 19.8802 52.2413 22.3139C53.5986 24.7476 54.2772 27.5791 54.2772 30.8084C54.2772 33.8037 53.7156 36.4246 52.5923 38.6711C51.4691 40.8708 49.7842 42.6025 47.5377 43.8661C45.338 45.083 42.6235 45.6914 39.3942 45.6914ZM20.9309 0.691406L20.4394 11.0112H12.2257L11.6641 0.691406H20.9309ZM69.2304 31.9317C67.0775 31.9317 65.299 31.604 63.895 30.9488C62.4909 30.2936 61.3677 29.4746 60.5252 28.4917C59.7296 27.4621 59.168 26.3856 58.8404 25.2624C58.5128 24.1391 58.349 23.1095 58.349 22.1735C58.349 20.3482 58.6532 18.8037 59.2616 17.5401C59.9168 16.2764 60.572 15.1298 61.2273 14.1001L68.739 14.6618C67.7093 15.6446 66.8903 16.604 66.2819 17.5401C65.6734 18.4761 65.3692 19.6696 65.3692 21.1204C65.3692 22.2905 65.7203 23.2499 66.4223 23.9987C67.1711 24.7476 68.1306 25.122 69.3006 25.122C70.6579 25.122 71.6641 24.7944 72.3193 24.1391C72.9745 23.4371 73.3022 22.5713 73.3022 21.5416C73.3022 20.1376 72.7405 19.1547 71.6173 18.5931C70.494 17.9847 68.973 17.6805 67.0541 17.6805H31.1103V9.74757H61.0167C63.8716 9.74757 66.2351 9.84117 68.1071 10.0284C69.9792 10.1688 71.5705 10.4496 72.8809 10.8708C74.2382 11.292 75.4784 11.9473 76.6017 12.8365C77.7717 13.7257 78.7078 14.849 79.4098 16.2062C80.1118 17.5635 80.4628 19.2718 80.4628 21.331C80.4628 24.3732 79.48 26.9005 77.5143 28.9129C75.5486 30.9254 72.7873 31.9317 69.2304 31.9317Z" fill="#D3302F"/>
</svg>
