<svg width="56" height="41" viewBox="0 0 56 41" fill="none" xmlns="http://www.w3.org/2000/svg">
<path d="M0.653711 33.6767C1.24866 31.9151 2.35324 31.1601 4.1381 31.1601C5.32804 31.1601 7.70738 31.1601 9.15211 31.0763C9.66214 31.0763 9.91693 30.4889 9.66214 30.0697C9.06719 29.3147 8.55764 28.6435 8.04761 27.9724C5.24315 23.9458 5.49838 19.08 8.98229 15.8081C10.8516 14.0466 13.3164 13.2078 15.7807 13.1234C20.8796 13.0396 25.9781 13.0396 31.1623 13.1234C34.3064 13.1234 36.1763 14.7173 37.1959 17.6535C39.0652 23.3582 41.0199 29.0628 42.8893 34.7674C43.3993 36.2774 43.5692 37.7036 42.2943 38.8778C41.0195 40.0525 39.4898 40.5555 37.7054 40.1363C36.3457 39.8009 35.4959 38.71 34.9859 37.5359C34.1361 35.7744 33.3713 34.0124 32.6065 32.167C32.2668 31.3282 31.7568 31.0767 30.397 31.3282C27.9326 31.7478 25.4684 31.8317 23.0885 31.3282C21.2192 30.9928 20.6242 31.412 20.6242 32.6705C20.6242 34.0967 20.6242 35.6067 20.4543 37.0328C20.1995 38.8782 18.8398 39.969 16.9699 40.0528H3.96806C2.60833 40.0528 1.67361 39.4655 1.0787 38.5428C0.568674 37.704 0.398808 36.6975 0.483747 35.6905C0.484173 34.767 0.569105 33.9281 0.654038 33.6766L0.653711 33.6767Z" fill="#D3302F"/>
<path d="M55.3986 12.9069C55.3986 19.7628 49.6662 25.4217 42.7212 25.4217C35.7763 25.4217 29.9336 19.6539 29.9336 12.798C30.0443 5.9421 35.7769 0.283728 42.6115 0.283728C49.5565 0.174418 55.3986 6.05095 55.3986 12.9069V12.9069Z" fill="#D3302F"/>
</svg>
