<svg width="79" height="46" viewBox="0 0 79 46" fill="none" xmlns="http://www.w3.org/2000/svg">
<path d="M9.23261 45.6914C7.35902 45.6914 5.77888 45.2512 4.4922 44.3709C3.22809 43.4905 2.26872 42.3054 1.6141 40.8156C0.982043 39.3257 0.666016 37.6779 0.666016 35.872C0.666016 34.2016 0.869176 32.4296 1.2755 30.556C1.70439 28.6824 2.31387 26.8201 3.10394 24.9691C3.91658 23.0955 4.89852 21.3347 6.04976 19.6869L7.09942 20.2287C6.12877 21.8314 5.34999 23.4115 4.76308 24.9691C4.19875 26.5266 3.91658 28.2986 3.91658 30.2851C3.91658 31.7298 4.13103 32.9262 4.55992 33.8743C4.98881 34.8223 5.56444 35.5785 6.28678 36.1429C7.00913 36.7072 7.7992 37.1022 8.65699 37.328C9.53735 37.5763 10.4177 37.7004 11.2981 37.7004C14.0746 37.7004 16.5012 36.9668 18.578 35.4995C20.6547 34.0323 21.6931 32.9036 21.6931 32.1135C21.6931 31.4363 20.7902 30.8607 18.9843 30.3867C17.1784 29.9126 16.2755 28.6259 16.2755 26.5266C16.2755 25.6011 16.4448 24.5515 16.7834 23.3776C17.1446 22.1813 17.6299 20.951 18.2394 19.6869C18.8714 18.4228 19.5825 17.2038 20.3726 16.03C21.1626 14.8336 21.9866 13.7614 22.8443 12.8133C23.7247 11.8652 24.6051 11.109 25.4854 10.5447C26.3884 9.98034 27.2349 9.69818 28.0249 9.69818C29.131 9.69818 29.6841 10.0142 29.6841 10.6463C29.6841 10.7366 29.6728 10.8607 29.6502 11.0187C29.6276 11.1542 29.5712 11.3122 29.4809 11.4928L27.2462 16.7411L26.806 16.8088C26.7383 16.7636 26.5915 16.7185 26.3658 16.6733C26.1626 16.6282 25.9595 16.6056 25.7563 16.6056C25.192 16.6056 24.5599 16.7524 23.8601 17.0458C23.1604 17.3393 22.4832 17.723 21.8285 18.197C21.1965 18.6485 20.6773 19.1451 20.271 19.6869C19.8647 20.2287 19.6615 20.7591 19.6615 21.2783C19.6615 21.8201 19.7969 22.2151 20.0678 22.4634C20.3387 22.7117 20.6886 22.9149 21.1175 23.0729C21.569 23.2083 22.0317 23.3551 22.5057 23.5131C23.0024 23.6711 23.4538 23.9194 23.8601 24.258C24.4019 24.6869 24.6728 25.6463 24.6728 27.1361C24.6728 28.1519 24.4922 29.337 24.131 30.6914C23.7699 32.0232 23.2168 33.5244 22.4719 35.1948C21.569 37.2038 20.4629 38.9984 19.1536 40.5785C17.8669 42.1812 16.3884 43.4341 14.7179 44.337C13.0701 45.2399 11.2416 45.6914 9.23261 45.6914Z" fill="#D3302F"/>
<path d="M31.3509 36.4815L31.08 35.635C32.141 35.1158 33.2696 34.495 34.466 33.7727C35.6624 33.0503 36.9152 32.2377 38.2245 31.3347C40.8204 29.5515 42.2538 27.7794 42.5247 26.0187L42.3554 25.9849C42.0168 26.1654 41.5992 26.3235 41.1026 26.4589C40.6285 26.5718 40.0642 26.6282 39.4096 26.6282C38.8001 26.6282 38.2132 26.504 37.6489 26.2557C37.0845 25.9849 36.6218 25.6011 36.2606 25.1045C35.8994 24.6079 35.7188 24.0323 35.7188 23.3776C35.7188 22.9713 35.7866 22.4973 35.922 21.9555C36.0574 21.4138 36.2719 20.8268 36.5653 20.1948L37.9197 17.4521C38.5969 16.0752 39.5789 15.3867 40.8656 15.3867C41.8588 15.3867 42.6489 15.7366 43.2358 16.4363C43.8452 17.1361 44.2741 18.039 44.5224 19.1451C44.7933 20.2287 44.9288 21.3799 44.9288 22.5989C44.9288 23.7727 44.7708 24.9352 44.4547 26.0864C44.1613 27.2377 43.7888 28.2986 43.3373 29.2693C42.9085 30.2174 42.4796 31.0187 42.0507 31.6733C41.6443 32.3054 41.317 32.723 41.0687 32.9262C40.7753 33.1519 40.2222 33.4341 39.4096 33.7727C38.6195 34.1338 37.7166 34.495 36.7008 34.8562C35.685 35.2174 34.6917 35.5447 33.7211 35.8381C32.773 36.1316 31.9829 36.346 31.3509 36.4815Z" fill="#D3302F"/>
<path d="M50.6773 8.43971L49.9324 8.10111C50.6547 6.5887 51.4335 5.36974 52.2687 4.44423C53.1039 3.51872 53.9843 3.05596 54.9098 3.05596C55.5644 3.05596 56.4109 3.18012 57.4493 3.42843C58.4877 3.67673 59.8308 3.80088 61.4787 3.80088C63.1039 3.80088 64.4696 3.64287 65.5757 3.32685C66.7044 2.98825 67.7541 2.41263 68.7247 1.59999L69.3003 2.07402C67.8105 4.10563 66.1513 5.53904 64.3229 6.37425C62.4945 7.18689 60.6773 7.59321 58.8714 7.59321C57.2687 7.59321 55.9933 7.48035 55.0453 7.25461C54.0972 7.0063 53.3748 6.88215 52.8782 6.88215C52.3139 6.88215 51.8963 7.02888 51.6254 7.32233C51.3545 7.61578 51.0385 7.98824 50.6773 8.43971Z" fill="#D3302F"/>
<path d="M56.2632 29.7095L55.3828 29.5063C55.4731 29.0774 55.5972 28.2648 55.7553 27.0684C55.9133 25.8494 56.0374 24.1 56.1277 21.8201L56.5679 12.1022C56.6356 10.8381 56.7146 9.74332 56.8049 8.81781C56.9178 7.89231 57.0758 7.02323 57.279 6.21059C57.4821 5.39795 57.753 4.56274 58.0916 3.70495C58.4528 2.82459 58.9042 1.82007 59.446 0.691406L60.2925 0.962286C60.1345 1.48147 59.9652 2.31669 59.7846 3.46793C59.604 4.5966 59.4573 6.24445 59.3444 8.4115L58.8027 18.4679C58.7124 20.4092 58.4415 22.3505 57.99 24.2919C57.5611 26.2332 56.9855 28.039 56.2632 29.7095Z" fill="#D3302F"/>
<path d="M61.4882 35.8381L61.2173 34.9916C61.8268 34.5627 62.5717 34.0097 63.4521 33.3325C64.355 32.6779 65.3031 31.9442 66.2963 31.1316C67.3121 30.2964 68.2941 29.4612 69.2421 28.6259C70.2128 27.7682 71.0706 26.9442 71.8155 26.1542C72.583 25.3641 73.1586 24.6643 73.5424 24.0548C73.9487 23.3776 74.2986 22.7794 74.592 22.2603C74.8855 21.7411 75.1451 21.2332 75.3708 20.7366C75.6191 20.2174 75.8674 19.6417 76.1157 19.0097C76.3866 18.3551 76.6913 17.5763 77.0299 16.6733L78.2489 16.8426C77.978 18.0616 77.6056 19.4273 77.1315 20.9397C76.6801 22.4296 76.1496 23.9081 75.5401 25.3754C74.9532 26.8426 74.3211 28.1858 73.6439 29.4047C72.9667 30.6011 72.2895 31.5266 71.6123 32.1812C71.4317 32.3393 71.0367 32.5537 70.4272 32.8246C69.8178 33.0955 69.0954 33.3776 68.2602 33.6711C67.4476 33.9645 66.601 34.258 65.7207 34.5514C64.8403 34.8449 64.0164 35.1045 63.2489 35.3302C62.504 35.556 61.9171 35.7253 61.4882 35.8381Z" fill="#D3302F"/>
</svg>
